<?xml version="1.0" encoding="utf-8"?>
<!-- Generator: Adobe Illustrator 25.4.1, SVG Export Plug-In . SVG Version: 6.00 Build 0)  -->
<svg version="1.1" id="Livello_1" xmlns="http://www.w3.org/2000/svg" xmlns:xlink="http://www.w3.org/1999/xlink" x="0px" y="0px"
	 viewBox="0 0 25 25" style="enable-background:new 0 0 25 25;" xml:space="preserve">
<style type="text/css">
	.st0{fill:#0B1A28;}
</style>
<g>
	<rect x="10.4" y="11.2" class="st0" width="1.7" height="0.8"/>
	<path class="st0" d="M24.2,11.2h-1.3v0.8h1.3v1.7c0,0.3-0.2,0.6-0.5,0.7L22.5,15c0,0,0-0.1,0-0.1s0-0.1,0-0.1c0,0,0-0.1,0-0.1
		c0,0,0-0.1,0-0.1c0,0,0-0.1,0-0.1c0,0,0-0.1,0-0.1c0,0,0-0.1,0-0.1c0,0,0-0.1,0-0.1c0,0,0-0.1-0.1-0.1c0,0,0-0.1-0.1-0.1
		c0,0,0-0.1-0.1-0.1c0,0,0-0.1-0.1-0.1c0,0,0-0.1-0.1-0.1c0,0,0-0.1-0.1-0.1c0,0-0.1-0.1-0.1-0.1c0,0-0.1-0.1-0.1-0.1
		c0,0-0.1-0.1-0.1-0.1c0,0-0.1-0.1-0.1-0.1c0,0-0.1,0-0.1-0.1c0,0-0.1,0-0.1-0.1c0,0-0.1,0-0.1-0.1c0,0-0.1,0-0.1-0.1
		c0,0-0.1,0-0.1-0.1c0,0-0.1,0-0.1,0c0,0-0.1,0-0.1,0c0,0-0.1,0-0.1,0c0,0-0.1,0-0.1,0c0,0-0.1,0-0.1,0c-0.1,0-0.1,0-0.2,0
		c0,0-0.1,0-0.1,0c-0.1,0-0.2,0-0.3,0c-1.4,0-2.5,1.1-2.5,2.5h-3.3v-4.2h4.6c0.1,0,0.2,0,0.3-0.1l1.1-1.1c0.5,0.2,0.9,0.5,1.3,0.7
		c0,0,0.1,0.1,0.2,0.1l2.6,0.4V11.2z M21.6,15.3c-0.2,0.9-1.1,1.5-2,1.3c-0.9-0.2-1.5-1.1-1.3-2c0.2-0.9,1.1-1.5,2-1.3
		c0.8,0.2,1.3,0.8,1.3,1.6C21.7,15.1,21.7,15.2,21.6,15.3z M14.2,8.3h0.2c1.7,0,3.3,0.3,4.9,0.9L18.6,10h-4.4V8.3z M13.3,10H7.5
		l0.1,0c1.8-1,3.8-1.5,5.8-1.6V10z M13.3,15H6.7c0-1.4-1.1-2.5-2.5-2.5c-1.4,0-2.5,1.1-2.5,2.5H0.8v-2.1c0-0.4,0.2-0.7,0.5-0.9
		c1.4-0.8,2.9-1.2,4.5-1.2h7.5V15z M5.8,15.3c-0.2,0.9-1.1,1.5-2,1.3c-0.9-0.2-1.5-1.1-1.3-2c0.2-0.9,1.1-1.5,2-1.3
		c0.8,0.2,1.3,0.8,1.3,1.6C5.8,15.1,5.8,15.2,5.8,15.3z M24.6,10l-2.8-0.4c-0.5-0.3-1.1-0.6-1.6-0.8c-1.8-0.8-3.8-1.3-5.8-1.3h-0.5
		c-2.4,0-4.7,0.6-6.8,1.7L5.7,10C4,10,2.4,10.5,1,11.3c-0.6,0.3-1,1-1,1.6v2.5c0,0.2,0.2,0.4,0.4,0.4h1.4c0.5,1.3,1.9,2,3.2,1.5
		c0.7-0.3,1.3-0.8,1.5-1.5h11.1c0.5,1.3,1.9,2,3.2,1.5c0.7-0.3,1.3-0.8,1.5-1.5h0.1c0.1,0,0.1,0,0.2,0l1.3-0.5c0.6-0.2,1-0.8,1-1.5
		v-3.4C25,10.2,24.8,10,24.6,10z"/>
</g>
</svg>
