<?xml version="1.0" encoding="utf-8"?>
<!-- Generator: Adobe Illustrator 25.4.1, SVG Export Plug-In . SVG Version: 6.00 Build 0)  -->
<svg version="1.1" id="Livello_1" xmlns="http://www.w3.org/2000/svg" xmlns:xlink="http://www.w3.org/1999/xlink" x="0px" y="0px"
	 viewBox="0 0 25 25" style="enable-background:new 0 0 25 25;" xml:space="preserve">
<style type="text/css">
	.st0{fill:#0B1A28;}
</style>
<g>
	<g>
		<path class="st0" d="M25,19H0V6h25V19z M1,18h23V7H1V18z"/>
	</g>
	<g>
		<path class="st0" d="M12.5,15.3c-1.6,0-2.8-1.3-2.8-2.8c0-1.5,1.3-2.8,2.8-2.8h0c1.6,0,2.8,1.3,2.8,2.8S14.1,15.3,12.5,15.3z
			 M12.5,10.7c-1,0-1.8,0.8-1.8,1.8c0,1,0.8,1.8,1.8,1.8s1.8-0.8,1.8-1.8S13.5,10.7,12.5,10.7L12.5,10.7z"/>
	</g>
	<g>
		<path class="st0" d="M21.3,17.2H3.7l-0.1-0.4C3.5,16,3,15.5,2.2,15.3l-0.4-0.1V9.7l0.4-0.1C3,9.5,3.5,9,3.7,8.2l0.1-0.4h17.5
			l0.1,0.4C21.5,9,22,9.5,22.8,9.7l0.4,0.1v5.5l-0.4,0.1c-0.7,0.1-1.3,0.7-1.4,1.4L21.3,17.2z M4.5,16.1h15.9
			c0.3-0.8,0.9-1.4,1.7-1.7v-3.9c-0.8-0.3-1.4-0.9-1.7-1.7H4.5c-0.3,0.8-0.9,1.4-1.7,1.7v3.9C3.6,14.8,4.2,15.4,4.5,16.1z"/>
	</g>
</g>
</svg>
