<?xml version="1.0" encoding="utf-8"?>
<!-- Generator: Adobe Illustrator 25.4.1, SVG Export Plug-In . SVG Version: 6.00 Build 0)  -->
<svg version="1.1" id="Livello_1" xmlns="http://www.w3.org/2000/svg" xmlns:xlink="http://www.w3.org/1999/xlink" x="0px" y="0px"
	 viewBox="0 0 25 25" style="enable-background:new 0 0 25 25;" xml:space="preserve">
<style type="text/css">
	.st0{fill:#0B2133;}
</style>
<g>
	<path class="st0" d="M12.9,15c-0.1,0-0.1,0-0.1,0l-5.7-5l5,5.7c0,0,0,0.1,0,0.1c0,0.4,0.4,0.8,0.8,0.8c0.4,0,0.8-0.4,0.8-0.8
		C13.6,15.3,13.3,15,12.9,15z M12.5,1.5C5.7,1.5,0.2,7,0.2,13.8c0,3.9,1.8,7.4,4.7,9.7h1.2c-3.1-2.1-5.2-5.6-5.2-9.7
		c0-6.4,5.2-11.6,11.6-11.6c6.4,0,11.6,5.2,11.6,11.6c0,4-2.1,7.6-5.2,9.7h1.2c2.9-2.3,4.7-5.8,4.7-9.7C24.8,7,19.3,1.5,12.5,1.5z
		 M17.6,7.8l0.2,0.1l1.9-2.3L19,5.2h0l-1.9,2.3v0L17.6,7.8z M15.5,4.1l-0.8,2.1l0,0l0.5,0.2l0.3,0.1h0l1-2.8l-0.8-0.3L15.5,4.1z
		 M6,5.1L5.4,5.7l0.7,0.8l1.2,1.4l0.4-0.3l0.3-0.2l0,0L6,5.1z M23,15l-2.9-0.5l0,0.2L20,15.3l2.9,0.5L23,15z M3.1,8.6l2.5,1.5L6,9.4
		l0.1-0.1v0L3.5,7.9L3.1,8.6z M17.1,19.7l1.9,2.3l0.6-0.5v0l-1.9-2.3v0v0l-0.4,0.4L17.1,19.7z M3.5,19.2l2.5-1.5v0l-0.3-0.6L5.6,17
		l-2.5,1.5L3.5,19.2L3.5,19.2L3.5,19.2z M9.5,6.5L9.5,6.5l0.7-0.2l0.1,0h0l-1-2.8L8.5,3.7l0.1,0.4L9.5,6.5z M22.9,11.3l-0.8,0.1
		L20,11.8v0h0l0.1,0.6l0,0.2v0l2.9-0.5L22.9,11.3z M2,12.1l1,0.2l1.9,0.3v0h0L5,11.9l0-0.1v0l-2.9-0.5L2,12.1z M21.5,19.2l0.4-0.7
		L21,18l-1.7-1v0l-0.2,0.4l-0.2,0.3v0L21.5,19.2z M7.6,19.4l-0.3-0.3l-1.9,2.3L6,21.9l0.8-1l1.1-1.3L7.6,19.4z M20.4,8.5l-1.5,0.9v0
		l0.2,0.4l0.2,0.3l2.5-1.5l-0.4-0.7L20.4,8.5z M2.1,15.8l2.1-0.4L5,15.3v0h0l-0.1-0.4l-0.1-0.4h0v0L2,15L2.1,15.8z M12.1,5.9
		L12.1,5.9l0-1v-2h0h0.8v2.9h0v0l-0.4,0H12.1z"/>
</g>
</svg>
