<?xml version="1.0" encoding="utf-8"?>
<!-- Generator: Adobe Illustrator 25.4.1, SVG Export Plug-In . SVG Version: 6.00 Build 0)  -->
<svg version="1.1" id="Livello_1" xmlns="http://www.w3.org/2000/svg" xmlns:xlink="http://www.w3.org/1999/xlink" x="0px" y="0px"
	 viewBox="0 0 25 25" style="enable-background:new 0 0 25 25;" xml:space="preserve">
<style type="text/css">
	.st0{fill:#0B2133;}
</style>
<g>
	<path class="st0" d="M14.5,16.8l0.3,0.7l-3.7,1.1c-0.1,0-0.1,0-0.2,0.1c0-0.1-0.1-0.1-0.1-0.2c0-0.1,0-0.2,0-0.3
		c0.1-0.2,0.2-0.2,0.5-0.4l0.1,0c0,0,0,0,0,0l2.2-1l0.4-0.2C14.2,16.5,14.4,16.6,14.5,16.8L14.5,16.8z M16.4,18.2
		c0.2,0.2,0.3,0.4,0.2,0.6c0,0.2-0.1,0.3-0.2,0.4l-5.1,1.1c-0.2,0-0.4,0-0.5-0.2c-0.1-0.1-0.1-0.3,0-0.5c0.1-0.2,0.2-0.2,0.6-0.3
		l3.7-1.1C15.6,18,16,17.9,16.4,18.2L16.4,18.2z M18.4,20.3c0.2,0.3,0.3,0.7,0.1,1l-7.8,0.9c0,0,0,0,0,0c-0.1-0.1-0.2-0.3-0.2-0.4
		c0-0.2,0.2-0.5,0.4-0.5l0.6-0.1l5.2-1.1c0.1,0,0.2,0,0.3-0.1l0.1,0C17.8,19.8,18.2,19.9,18.4,20.3L18.4,20.3z M20.2,21.9
		c0.2,0.1,0.5,0.2,0.6,0.4c0.2,0.2,0.2,0.5,0.2,0.8c0,0.2-0.2,0.4-0.3,0.4h-10c-0.1,0-0.2-0.1-0.3-0.2c-0.1-0.1-0.1-0.2,0-0.3
		c0-0.1,0.1-0.1,0.2-0.1l8.4-1c0.1,0,0.2,0,0.4-0.1C19.7,21.9,20,21.9,20.2,21.9L20.2,21.9z M8.8,8.9l0.7-0.3l3.4,7.6l-1.5,0.6
		L8.1,9.2L8.8,8.9z M6.9,8.4L6.5,7.7l2.9-1.3l0.3,0.7c0,0.1,0,0.2,0,0.3c0,0.1-0.1,0.2-0.2,0.2l-2.2,1c-0.1,0-0.2,0-0.3,0
		C7,8.6,6.9,8.5,6.9,8.4z M4.2,5.3C3.8,4.6,3.9,3.7,4.2,3c0.3-0.7,1-1.3,1.7-1.5c0.3-0.1,0.5-0.1,0.8-0.1c1,0,1.9,0.5,2.4,1.3
		C9.5,3.4,9.6,4.2,9.4,5C9.3,5.2,9.3,5.4,9.3,5.6L6.1,7C5.9,6.9,5.7,6.8,5.5,6.7C4.9,6.4,4.4,5.9,4.2,5.3z M9.8,2.3
		C9,1,7.4,0.3,5.9,0.7C4.5,1,3.3,2.2,3.2,3.8c-0.2,1.5,0.7,3,2,3.6C5.5,7.5,5.7,7.7,5.8,8l0.4,0.8c0.2,0.4,0.6,0.7,1.1,0.7
		c0,0,0.1,0,0.1,0l3.4,7.7c-0.3,0.1-0.5,0.4-0.6,0.7c-0.1,0.3-0.1,0.6,0,0.8c0,0.1,0.1,0.3,0.2,0.4c-0.1,0.1-0.1,0.2-0.2,0.3
		c-0.2,0.4-0.2,1,0.1,1.3c0,0,0,0,0,0c-0.4,0.2-0.6,0.7-0.5,1.1c0,0.3,0.1,0.5,0.2,0.8c-0.1,0.1-0.1,0.1-0.1,0.2
		c-0.2,0.3-0.2,0.8,0,1.1c0.2,0.4,0.6,0.6,1,0.6h10c0.7,0,1.1-0.7,1.1-1.2c0-0.5-0.1-0.9-0.4-1.3c-0.3-0.4-0.7-0.6-1.1-0.8
		c-0.3-0.1-0.6,0-0.9,0c0.1-0.5-0.1-1-0.4-1.4c-0.4-0.5-1.1-0.8-1.7-0.7c0-0.1,0-0.1,0-0.2c0-0.5-0.2-0.9-0.5-1.2
		c-0.4-0.3-0.9-0.5-1.4-0.4c0,0,0-0.1,0-0.1l-0.3-0.7c-0.3-0.6-1-0.9-1.6-0.6l-3.4-7.7c0.4-0.3,0.5-0.9,0.3-1.3L10.1,6
		c-0.1-0.2-0.1-0.5,0-0.8C10.4,4.3,10.3,3.2,9.8,2.3z"/>
	<path class="st0" d="M6.5,2.7c0-0.2-0.2-0.4-0.4-0.4c-0.3,0-0.5,0.1-0.8,0.3C4.7,2.9,4.5,3.5,4.5,4.1c0,0.2,0.2,0.4,0.4,0.4h0
		c0.1,0,0.2-0.1,0.3-0.1C5.3,4.3,5.3,4.1,5.3,4c0-0.2,0-0.5,0.2-0.6c0.1-0.2,0.4-0.3,0.6-0.3C6.3,3.1,6.5,2.9,6.5,2.7z"/>
</g>
</svg>
