<?xml version="1.0" encoding="utf-8"?>
<!-- Generator: Adobe Illustrator 25.4.1, SVG Export Plug-In . SVG Version: 6.00 Build 0)  -->
<svg version="1.1" id="Livello_1" xmlns="http://www.w3.org/2000/svg" xmlns:xlink="http://www.w3.org/1999/xlink" x="0px" y="0px"
	 viewBox="0 0 25 25" style="enable-background:new 0 0 25 25;" xml:space="preserve">
<style type="text/css">
	.st0{fill:#FFFFFF;}
</style>
<g>
	<path class="st0" d="M12.5,23c-1.3,0-2.5-0.2-3.7-0.7c-0.1,0-0.2-0.1-0.3,0L3,23.3l1.4-3.3c0.1-0.2,0.1-0.5-0.1-0.7
		c-0.8-0.9-1.4-1.9-1.8-3C2,15,1.8,13.6,1.8,12.3c0-5.9,4.8-10.8,10.8-10.8c5.9,0,10.7,4.8,10.7,10.7v0C23.3,18.2,18.4,23,12.5,23z
		 M12.6,0.2C12.5,0.2,12.5,0.2,12.6,0.2C5.9,0.2,0.4,5.6,0.4,12.3c0,2.7,0.9,5.4,2.6,7.5l-1.8,4.1c-0.1,0.3,0,0.7,0.3,0.9
		c0.1,0.1,0.3,0.1,0.4,0l6.4-1.1c1.3,0.5,2.6,0.7,4,0.7c6.7,0,12.1-5.4,12.1-12.1C24.6,5.6,19.2,0.2,12.6,0.2z"/>
	<path class="st0" d="M12,9.9H8.4c-0.4,0-0.7,0.3-0.7,0.7s0.3,0.7,0.7,0.7H12c0.4,0,0.7-0.3,0.7-0.7S12.3,9.9,12,9.9z"/>
	<path class="st0" d="M16.6,13.2H8.4c-0.4,0-0.7,0.3-0.7,0.7c0,0.4,0.3,0.7,0.7,0.7h8.2c0.4,0,0.7-0.3,0.7-0.7
		C17.2,13.5,16.9,13.2,16.6,13.2z"/>
</g>
</svg>
