<?xml version="1.0" encoding="utf-8"?>
<!-- Generator: Adobe Illustrator 25.4.1, SVG Export Plug-In . SVG Version: 6.00 Build 0)  -->
<svg version="1.1" id="Livello_1" xmlns="http://www.w3.org/2000/svg" xmlns:xlink="http://www.w3.org/1999/xlink" x="0px" y="0px"
	 viewBox="0 0 25 25" style="enable-background:new 0 0 25 25;" xml:space="preserve">
<style type="text/css">
	.st0{fill:#0B1A28;}
</style>
<g>
	<g>
		<path class="st0" d="M13.3,4.8H6.6c-0.2,0-0.3-0.1-0.3-0.3c0-0.2,0.1-0.3,0.3-0.3h6.7c0.2,0,0.3,0.1,0.3,0.3
			C13.6,4.7,13.5,4.8,13.3,4.8z"/>
	</g>
	<g>
		<path class="st0" d="M13.3,5.1H6.6C6.3,5.1,6,4.8,6,4.5c0-0.3,0.3-0.6,0.6-0.6h6.7c0.3,0,0.6,0.3,0.6,0.6
			C13.9,4.8,13.6,5.1,13.3,5.1z M6.6,4.4C6.6,4.4,6.5,4.4,6.6,4.4c-0.1,0.1,0,0.1,0,0.1h6.7c0,0,0.1,0,0.1-0.1c0,0,0-0.1-0.1-0.1
			H6.6z"/>
	</g>
	<g>
		<path class="st0" d="M13.3,7H6.6C6.4,7,6.3,6.8,6.3,6.7s0.1-0.3,0.3-0.3h6.7c0.2,0,0.3,0.1,0.3,0.3S13.5,7,13.3,7z"/>
	</g>
	<g>
		<path class="st0" d="M13.3,7.3H6.6C6.3,7.3,6,7,6,6.7c0-0.3,0.3-0.6,0.6-0.6h6.7c0.3,0,0.6,0.3,0.6,0.6C13.9,7,13.6,7.3,13.3,7.3z
			 M6.6,6.6C6.6,6.6,6.5,6.6,6.6,6.6c-0.1,0.1,0,0.1,0,0.1h6.7c0,0,0.1,0,0.1-0.1c0,0,0-0.1-0.1-0.1H6.6z"/>
	</g>
	<g>
		<path class="st0" d="M20.6,23.2h-15c-0.5,0-0.8-0.4-0.8-0.8V2.7c0-0.5,0.4-0.8,0.8-0.8h10.7v4c0,0.7,0.5,1.2,1.2,1.2h4v15.4
			C21.5,22.8,21.1,23.2,20.6,23.2z M17,2.3l4,4h-3.5c-0.3,0-0.6-0.2-0.6-0.6V2.3z M22,6.4l-5.2-5.2c-0.1-0.1-0.1-0.1-0.2-0.1h-11
			c-0.8,0-1.5,0.7-1.5,1.5v19.7c0,0.8,0.7,1.5,1.5,1.5h15c0.8,0,1.5-0.7,1.5-1.5V6.7C22.1,6.6,22.1,6.5,22,6.4z"/>
	</g>
	<g>
		<path class="st0" d="M20.6,24.1h-15c-1,0-1.8-0.8-1.8-1.8V2.7c0-1,0.8-1.8,1.8-1.8h11c0.2,0,0.3,0.1,0.4,0.2l5.2,5.2
			c0.1,0.1,0.2,0.3,0.2,0.4v15.7C22.4,23.3,21.6,24.1,20.6,24.1z M5.6,1.4C5,1.4,4.4,2,4.4,2.7v19.7c0,0.7,0.6,1.2,1.2,1.2h15
			c0.7,0,1.2-0.6,1.2-1.2l0-15.7l-5.2-5.2L5.6,1.4z M20.6,23.5h-15c-0.6,0-1.1-0.5-1.1-1.1V2.7C4.5,2,5,1.5,5.6,1.5h10.9v4.2
			c0,0.5,0.4,0.9,0.9,0.9h4.2v15.6C21.8,23,21.3,23.5,20.6,23.5z M5.6,2.1c-0.3,0-0.6,0.3-0.6,0.6v19.7c0,0.3,0.3,0.6,0.6,0.6h15
			c0.3,0,0.6-0.3,0.6-0.6V7.3h-3.7c-0.8,0-1.5-0.7-1.5-1.5V2.1H5.6z M21.7,6.6h-4.2c-0.5,0-0.8-0.4-0.8-0.8V1.6L21.7,6.6z M17.2,2.9
			v2.8c0,0.2,0.1,0.3,0.3,0.3h2.8L17.2,2.9z"/>
	</g>
</g>
</svg>
