<?xml version="1.0" encoding="utf-8"?>
<!-- Generator: Adobe Illustrator 25.4.1, SVG Export Plug-In . SVG Version: 6.00 Build 0)  -->
<svg version="1.1" id="Livello_1" xmlns="http://www.w3.org/2000/svg" xmlns:xlink="http://www.w3.org/1999/xlink" x="0px" y="0px"
	 viewBox="0 0 25 25" style="enable-background:new 0 0 25 25;" xml:space="preserve">
<style type="text/css">
	.st0{fill:#0B1A28;}
</style>
<g>
	<g>
		<path class="st0" d="M22,19.4l-1,1.7c-0.2,0.4-0.6,0.7-1,0.8c-2.1,0.6-5.8,0.1-11.4-5.5C3,10.9,2.5,7.2,3.1,5.1
			c0.1-0.4,0.4-0.8,0.8-1l1.7-1c0.2-0.1,0.6-0.1,0.7,0.2l1.5,2.3l1.3,1.9C9.3,7.5,9.2,7.8,9,8L7.4,9.2c-0.5,0.4-0.6,1-0.3,1.5
			L7.2,11c0.4,0.8,1,1.8,3,3.8c2,2,3,2.5,3.8,3l0.2,0.1c0.5,0.3,1.2,0.2,1.5-0.3L17,16c0.2-0.2,0.5-0.3,0.7-0.1l4.2,2.8
			C22.1,18.8,22.2,19.1,22,19.4z M22.3,18.1l-4.2-2.8c-0.5-0.4-1.2-0.2-1.6,0.3l-1.2,1.6c-0.2,0.2-0.4,0.3-0.7,0.1l-0.2-0.1
			c-0.8-0.4-1.7-0.9-3.6-2.9s-2.4-2.9-2.9-3.6l-0.1-0.2c-0.1-0.2-0.1-0.5,0.1-0.7l1.6-1.2C9.9,8.1,10,7.4,9.7,6.9L6.9,2.7
			C6.5,2.2,5.8,2,5.3,2.4l-1.7,1C3,3.7,2.6,4.3,2.4,4.9c-0.6,2.3-0.2,6.2,5.7,12.1c4.6,4.6,8.1,5.9,10.4,5.9c0.5,0,1.1-0.1,1.6-0.2
			c0.6-0.2,1.1-0.6,1.5-1.1l1-1.7C23,19.2,22.8,18.5,22.3,18.1z"/>
	</g>
	<g>
		<path class="st0" d="M18.5,23.1C18.5,23.1,18.5,23.1,18.5,23.1c-3.1,0-6.7-2-10.7-6C2,11.2,1.5,7.2,2.1,4.8
			c0.2-0.7,0.6-1.3,1.2-1.6l1.7-1c0.7-0.4,1.6-0.2,2,0.5l2.8,4.2c0.4,0.6,0.3,1.5-0.3,2L8,10C7.9,10,7.9,10.2,8,10.3l0.1,0.2
			c0.4,0.8,0.9,1.7,2.8,3.6c1.9,1.9,2.8,2.4,3.6,2.8l0.2,0.1c0.1,0.1,0.2,0,0.3-0.1l1.2-1.6c0.5-0.6,1.4-0.8,2-0.3l4.2,2.8
			c0.7,0.4,0.9,1.3,0.5,2l-1,1.7c-0.4,0.6-0.9,1.1-1.6,1.2C19.7,23,19.1,23.1,18.5,23.1z M5.9,2.5c-0.2,0-0.3,0-0.5,0.1l-1.7,1
			c-0.5,0.3-0.8,0.7-1,1.3C2.1,7.2,2.5,11,8.3,16.7c3.8,3.8,7.3,5.8,10.3,5.8c0,0,0,0,0,0c0.5,0,1-0.1,1.5-0.2c0.5-0.2,1-0.5,1.3-1
			l1.1-1.7c0.3-0.4,0.1-1-0.3-1.3l-4.2-2.8c-0.4-0.3-1-0.2-1.3,0.2l-1.2,1.6c-0.2,0.3-0.7,0.4-1,0.2l-0.2-0.1
			c-0.8-0.4-1.8-1-3.7-2.9c-2-2-2.5-2.9-2.9-3.7l-0.1-0.2c-0.2-0.3-0.1-0.8,0.2-1l1.6-1.2C9.6,8,9.7,7.5,9.5,7.1L6.7,2.9
			C6.5,2.6,6.2,2.5,5.9,2.5z M18.5,22.4c-2.3,0-5.6-1.2-10.2-5.8C2.7,11,2.2,7.2,2.8,5C2.9,4.5,3.3,4,3.7,3.8l1.7-1
			C5.8,2.5,6.3,2.6,6.6,3l2.8,4.2C9.6,7.5,9.5,8,9.2,8.2L7.6,9.4c-0.4,0.3-0.5,0.8-0.2,1.2l0.1,0.2c0.4,0.8,1,1.8,2.9,3.7
			c2,2,2.9,2.5,3.7,2.9l0.2,0.1c0.4,0.2,0.9,0.1,1.2-0.2l1.2-1.6c0.3-0.3,0.7-0.4,1.1-0.2l4.2,2.8c0.4,0.2,0.5,0.7,0.2,1.1l0,0l0,0
			l-1,1.7c-0.3,0.5-0.7,0.8-1.2,0.9C19.6,22.3,19.1,22.4,18.5,22.4z M5.9,3.2c0,0-0.1,0-0.1,0L4,4.2C3.7,4.4,3.4,4.8,3.3,5.1
			c-0.6,2-0.1,5.6,5.4,11.1c5.5,5.5,9.1,6,11.1,5.4c0.4-0.1,0.7-0.3,0.9-0.7l1-1.7c0.1-0.1,0-0.3-0.1-0.3l-4.2-2.8
			c-0.1-0.1-0.3,0-0.3,0.1L16,17.7c-0.4,0.6-1.3,0.7-1.9,0.4L13.9,18c-0.8-0.4-1.8-1-3.9-3c-2-2-2.6-3-3-3.9l-0.1-0.2
			C6.5,10.3,6.7,9.4,7.3,9l1.6-1.2C8.9,7.7,9,7.5,8.9,7.4L6.1,3.3C6.1,3.2,6,3.2,5.9,3.2z"/>
	</g>
	<g>
		<path class="st0" d="M13.9,5.6c3.2,0,5.8,2.6,5.8,5.8c0,0.2,0.2,0.3,0.3,0.3c0.2,0,0.3-0.2,0.3-0.3c0-3.6-2.9-6.5-6.5-6.5
			c-0.2,0-0.3,0.2-0.3,0.3S13.7,5.6,13.9,5.6z"/>
	</g>
	<g>
		<path class="st0" d="M20.1,12.1c-0.3,0-0.6-0.3-0.6-0.6c0-3.1-2.5-5.6-5.6-5.6c-0.3,0-0.6-0.3-0.6-0.6c0-0.3,0.3-0.6,0.6-0.6
			c3.7,0,6.8,3.1,6.8,6.8C20.7,11.8,20.4,12.1,20.1,12.1z M13.9,5.2C13.8,5.2,13.8,5.2,13.9,5.2c-0.1,0.1,0,0.1,0,0.1h0
			c3.4,0,6.1,2.7,6.1,6.1c0,0.1,0.1,0.1,0.1,0C20.1,8,17.3,5.2,13.9,5.2z"/>
	</g>
	<g>
		<path class="st0" d="M13.9,7.7c2.1,0,3.8,1.7,3.8,3.8c0,0.2,0.2,0.3,0.3,0.3s0.3-0.2,0.3-0.3c0-2.5-2-4.5-4.5-4.5
			c-0.2,0-0.3,0.2-0.3,0.3C13.5,7.5,13.7,7.7,13.9,7.7z"/>
	</g>
	<g>
		<path class="st0" d="M18,12.1c-0.3,0-0.6-0.3-0.6-0.6c0-1.9-1.6-3.5-3.5-3.5c-0.3,0-0.6-0.3-0.6-0.6s0.3-0.6,0.6-0.6
			c2.6,0,4.7,2.1,4.7,4.7C18.6,11.8,18.3,12.1,18,12.1z M13.9,7.3C13.8,7.3,13.8,7.3,13.9,7.3c-0.1,0.1,0,0.1,0,0.1h0
			c2.2,0,4.1,1.8,4.1,4.1c0,0.1,0.1,0.1,0.1,0C18.1,9.2,16.2,7.3,13.9,7.3z"/>
	</g>
	<g>
		<path class="st0" d="M13.9,9.8c0.9,0,1.7,0.8,1.7,1.7c0,0.2,0.2,0.3,0.3,0.3c0.2,0,0.3-0.2,0.3-0.3c0-1.3-1.1-2.4-2.4-2.4
			c-0.2,0-0.3,0.2-0.3,0.3S13.7,9.8,13.9,9.8z"/>
	</g>
	<g>
		<path class="st0" d="M15.9,12.1c-0.3,0-0.6-0.3-0.6-0.6c0-0.8-0.6-1.4-1.4-1.4c-0.3,0-0.6-0.3-0.6-0.6c0-0.3,0.3-0.6,0.6-0.6
			c1.5,0,2.7,1.2,2.7,2.7C16.6,11.8,16.3,12.1,15.9,12.1z M13.9,9.3C13.8,9.3,13.8,9.4,13.9,9.3c-0.1,0.1,0,0.1,0,0.1l0,0
			c1.1,0,2,0.9,2,2c0,0.1,0.1,0.1,0.1,0C16,10.3,15,9.3,13.9,9.3z"/>
	</g>
</g>
</svg>
