<svg id="Livello_1" data-name="Livello 1" xmlns="http://www.w3.org/2000/svg" viewBox="0 0 35 35"><defs><style>.cls-1{opacity:0.4;}.cls-2{fill:#0b1a28;}</style></defs><g id="Spunta"><g class="cls-1"><path class="cls-2" d="M21.47,15.43l-.51.36-.52.36h0c1.18,1.69,2.29,3.29,2.29,5.43a5.59,5.59,0,1,1-11.17,0c0-2.17,1.15-3.84,2.3-5.49.34-.49.69-1,1-1.52a17.31,17.31,0,0,0,2.26-5.48,17.09,17.09,0,0,0,2.26,5.48c.32.53.68,1,1,1.55l.54-.33.5-.38c-.34-.49-.69-1-1-1.5a15.29,15.29,0,0,1-2.32-6.45,1,1,0,0,0-1-.89,1,1,0,0,0-1,.89,15.56,15.56,0,0,1-2.32,6.45c-.31.5-.65,1-1,1.5-1.17,1.69-2.5,3.61-2.5,6.17a6.85,6.85,0,1,0,13.69,0C24,19,22.65,17.12,21.47,15.43Z"/><path class="cls-2" d="M16.28,21a2.7,2.7,0,0,1-.28-.31,2.21,2.21,0,0,1-.48-.92A4.81,4.81,0,0,1,15.43,18L16,14.21l-1.71,3.36c-.08.15-1.81,3.6-.82,5.86a2.29,2.29,0,0,0,2,1.43,1.63,1.63,0,0,0,.68-.14h0A2.12,2.12,0,0,0,17,21.88,3.09,3.09,0,0,0,16.28,21Zm-.68,2.62c-.34.15-.8-.15-1-.65a3.91,3.91,0,0,1-.07-2.29,3.91,3.91,0,0,0,.51.81c.11.13.24.26.36.39a1.93,1.93,0,0,1,.44.55C16,22.87,15.93,23.42,15.6,23.57Z"/></g></g><g class="cls-1"><path class="cls-2" d="M18.38,34A16.53,16.53,0,1,1,27.78,3.9a.9.9,0,0,1-1,1.48,14.73,14.73,0,1,0,4,20.07A.89.89,0,0,1,32,25.18a.9.9,0,0,1,.28,1.24A16.5,16.5,0,0,1,18.38,34Z"/><polygon class="cls-2" points="23.51 6.89 31.34 8.76 29.05 1.04 23.51 6.89"/></g></svg>