<svg id="Livello_1" data-name="Livello 1" xmlns="http://www.w3.org/2000/svg" viewBox="0 0 20 20"><defs><style>.cls-1{fill:#0b1a28;opacity:0.4;isolation:isolate;}</style></defs><path id="Tracciato_207" data-name="Tracciato 207" class="cls-1" d="M7.71,1.45a3,3,0,0,0-5.14,3.1A3,3,0,0,0,3.88,5.72a1,1,0,0,1,.48.47l.3.66a1,1,0,0,0,.92.6h.07l2.87,6.47a1,1,0,0,0-.54.56,1.23,1.23,0,0,0,0,.71,1.83,1.83,0,0,0,.14.32,1.14,1.14,0,0,0-.15.23,1,1,0,0,0,.1,1.12s0,0,0,0a1.05,1.05,0,0,0-.44.91,1.31,1.31,0,0,0,.21.64.76.76,0,0,0-.11.14.92.92,0,0,0,.28,1.28,1,1,0,0,0,.5.14h8.39a1,1,0,0,0,.91-1,1.65,1.65,0,0,0-.31-1.1,1.58,1.58,0,0,0-.92-.64,2.32,2.32,0,0,0-.79,0,1.6,1.6,0,0,0-.3-1.18,1.47,1.47,0,0,0-1.44-.58c0-.06,0-.11,0-.17a1.4,1.4,0,0,0-.41-1A1.3,1.3,0,0,0,12.56,14a.64.64,0,0,0,0-.07l-.27-.61A1,1,0,0,0,11,12.82L8.09,6.36a1,1,0,0,0,.23-1.13L8,4.54a.91.91,0,0,1,0-.63A3,3,0,0,0,7.71,1.45ZM3,3.94A2.33,2.33,0,0,1,4.19.86l.26-.1a2.24,2.24,0,0,1,.68-.1,2.36,2.36,0,0,1,2,1.13A2.29,2.29,0,0,1,7.36,3.7a1.89,1.89,0,0,0-.08.53L4.61,5.42a1.72,1.72,0,0,0-.45-.31A2.32,2.32,0,0,1,3,3.94ZM5.27,6.58,5,6,7.44,4.89l.27.61a.33.33,0,0,1-.17.44h0l-1.83.81a.31.31,0,0,1-.25,0A.34.34,0,0,1,5.27,6.58ZM6.9,7l.6-.27,2.84,6.4-1.22.54L6.28,7.23Zm9.59,11a.85.85,0,0,1,.51.36,1.08,1.08,0,0,1,.2.67c0,.17-.16.38-.26.38H8.55a.26.26,0,0,1-.25-.27.26.26,0,0,1,.22-.25l7-.81.3-.05a1.9,1.9,0,0,1,.63,0ZM15,16.51a.87.87,0,0,1,.11.88l-6.58.75h0a.58.58,0,0,1-.15-.35.39.39,0,0,1,.34-.42l.51-.1,4.37-.93a2.61,2.61,0,0,0,.27-.06l.09,0c.53-.14.85-.06,1.08.26Zm-1.76-1.69a.73.73,0,0,1,.21.52.69.69,0,0,1-.13.37l-4.26.89a.44.44,0,0,1-.45-.16.36.36,0,0,1,0-.42c.06-.15.17-.19.47-.28l3.08-.94c.5-.16.84-.24,1.11,0ZM11.67,13.6l.25.57-3.08.93-.14.05A1.11,1.11,0,0,1,8.63,15a.42.42,0,0,1,0-.29c.05-.13.19-.2.42-.3l.05,0h0l1.81-.8.33-.15a.34.34,0,0,1,.44.17Z"/></svg>