<svg id="Livello_1" data-name="Livello 1" xmlns="http://www.w3.org/2000/svg" viewBox="0 0 20 20"><defs><style>.cls-1{opacity:0.4;isolation:isolate;}.cls-2{fill:#0b1a28;}</style></defs><g id="Tracciato_206" data-name="Tracciato 206" class="cls-1"><path class="cls-2" d="M18.57,2.42H16.92V2.09a1,1,0,1,0-2,0v.33H5.05V2.09a1,1,0,1,0-2,0v.33H1.43A1.32,1.32,0,0,0,.11,3.74V17.58A1.32,1.32,0,0,0,1.43,18.9H15.61a.33.33,0,0,0,.33-.33.33.33,0,0,0-.33-.33H1.43a.65.65,0,0,1-.66-.66V6.37H19.23V17.58a.65.65,0,0,1-.66.66H17.25a.33.33,0,0,0,0,.66h1.32a1.32,1.32,0,0,0,1.32-1.32V3.74A1.32,1.32,0,0,0,18.57,2.42Zm-3-.33a.33.33,0,1,1,.65,0V3.74a.33.33,0,0,1-.65,0Zm-11.87,0a.33.33,0,1,1,.65,0V3.74a.33.33,0,0,1-.65,0Zm-3,3.62v-2a.65.65,0,0,1,.66-.66H3.08v.66a1,1,0,0,0,2,0V3.08H15v.66a1,1,0,0,0,2,0V3.08h1.65a.65.65,0,0,1,.66.66v2Z"/><path class="cls-2" d="M15.61,19H1.43A1.43,1.43,0,0,1,0,17.59V3.74A1.43,1.43,0,0,1,1.43,2.31H3V2.09a1.1,1.1,0,1,1,2.19,0v.22h9.68V2.09a1.1,1.1,0,1,1,2.19,0v.22h1.54A1.43,1.43,0,0,1,20,3.74V17.58A1.43,1.43,0,0,1,18.57,19H17.25a.48.48,0,0,1-.31-.13.43.43,0,0,1-.12-.31.44.44,0,0,1,.43-.44h1.32a.55.55,0,0,0,.56-.55V6.48H.87V17.59a.56.56,0,0,0,.56.55H15.61a.43.43,0,0,1,.43.43A.44.44,0,0,1,15.61,19ZM1.43,2.52A1.22,1.22,0,0,0,.22,3.74V17.59A1.22,1.22,0,0,0,1.43,18.8H15.61a.22.22,0,0,0,.22-.23.22.22,0,0,0-.22-.22H1.43a.76.76,0,0,1-.77-.76V6.27H19.34V17.58a.76.76,0,0,1-.77.77H17.25a.22.22,0,0,0-.22.22.2.2,0,0,0,.07.16.2.2,0,0,0,.15.06h1.32a1.21,1.21,0,0,0,1.21-1.21V3.74a1.22,1.22,0,0,0-1.21-1.22H16.82V2.09a.89.89,0,1,0-1.77,0v.43H5V2.09a.89.89,0,1,0-1.77,0v.43Zm17.91,3.3H.66V3.74A.76.76,0,0,1,1.43,3H3.18v.77A.89.89,0,0,0,5,3.74V3h10.1v.77a.89.89,0,0,0,1.77,0V3h1.75a.76.76,0,0,1,.77.76ZM.87,5.61H19.13V3.74a.56.56,0,0,0-.56-.56H17v.56a1.1,1.1,0,0,1-2.19,0V3.18H5.16v.56A1.1,1.1,0,0,1,3,3.74V3.18H1.43a.56.56,0,0,0-.56.56ZM15.93,4.17a.43.43,0,0,1-.43-.43V2.09a.44.44,0,1,1,.87,0V3.74A.43.43,0,0,1,15.93,4.17Zm0-2.31a.22.22,0,0,0-.22.23V3.74a.22.22,0,0,0,.22.22.22.22,0,0,0,.23-.22V2.09A.23.23,0,0,0,15.93,1.86ZM4.07,4.17a.43.43,0,0,1-.44-.43V2.09a.44.44,0,1,1,.87,0V3.74A.43.43,0,0,1,4.07,4.17Zm0-2.31a.23.23,0,0,0-.23.23V3.74A.22.22,0,0,0,4.07,4a.22.22,0,0,0,.22-.22V2.09A.22.22,0,0,0,4.07,1.86Z"/></g></svg>