<svg id="Livello_1" data-name="Livello 1" xmlns="http://www.w3.org/2000/svg" viewBox="0 0 35 35"><defs><style>.cls-1{opacity:0.4;}.cls-2{fill:#0b1a28;}</style></defs><g id="Spunta"><g class="cls-1"><path class="cls-2" d="M11.38,35a3.85,3.85,0,0,1-3.19-1.62L6.33,30.73a3.23,3.23,0,0,1,.78-4.3c1.41-1,2.82-2.15,4.21-3.29a3.19,3.19,0,0,1,4.42.33l1.37,1.58a76.67,76.67,0,0,0,7.5-7.58l-1.53-1.32a3.21,3.21,0,0,1-.34-4.44C23.86,10.36,25,9,26,7.51a3.18,3.18,0,0,1,4.38-.73L33,8.59a4,4,0,0,1,1.26,4.88A37.46,37.46,0,0,1,13.07,34.65,4.3,4.3,0,0,1,11.38,35ZM7.6,30.22,9.29,32.6a2.68,2.68,0,0,0,3.25.81A36.24,36.24,0,0,0,33,13a2.66,2.66,0,0,0-.8-3.26h0L29.65,7.88a1.85,1.85,0,0,0-2.53.43C26,9.77,24.91,11.2,23.78,12.57a1.86,1.86,0,0,0,.16,2.55l1.6,1.37a1.3,1.3,0,0,1,.43.87,1.37,1.37,0,0,1-.35,1A71,71,0,0,1,18,26a1.31,1.31,0,0,1-1,.34,1.26,1.26,0,0,1-.87-.43l-1.36-1.57a1.85,1.85,0,0,0-2.56-.19c-1.4,1.17-2.83,2.29-4.26,3.34A1.86,1.86,0,0,0,7.45,30Z"/><path class="cls-2" d="M4.4,25.29a1.88,1.88,0,0,1-.34,0A2.8,2.8,0,0,1,1.83,23.6L.62,20.74a2.78,2.78,0,0,1,1.47-3.65l1.56-.66a12.32,12.32,0,0,1,.06-1.95,12.15,12.15,0,0,1,.41-1.91l-1.35-1A2.73,2.73,0,0,1,1.69,9.72a2.8,2.8,0,0,1,.53-2.06L4.09,5.18A2.78,2.78,0,0,1,8,4.63l1.36,1a12.1,12.1,0,0,1,3.57-1.52l.21-1.69A2.79,2.79,0,0,1,16.22,0L19.3.4a2.78,2.78,0,0,1,2.42,3.1l-.2,1.68A12,12,0,0,1,25,7.88l-1,.89A10.56,10.56,0,0,0,20.5,6.18L20.06,6l.33-2.64a1.45,1.45,0,0,0-1.25-1.6l-3.08-.37A1.48,1.48,0,0,0,15,1.65a1.39,1.39,0,0,0-.54,1l-.33,2.63-.47.1A10.75,10.75,0,0,0,9.69,7l-.4.27L7.17,5.7a1.38,1.38,0,0,0-1.06-.27,1.43,1.43,0,0,0-1,.56L3.3,8.47a1.43,1.43,0,0,0,.28,2L5.7,12.07l-.15.46a10.62,10.62,0,0,0-.5,2.11,11,11,0,0,0,0,2.17l0,.48-2.44,1a1.43,1.43,0,0,0-.76,1.88l1.21,2.86a1.39,1.39,0,0,0,.79.77,1.56,1.56,0,0,0,.37.1A1.41,1.41,0,0,0,5,23.83l2.44-1,.32.36a12.8,12.8,0,0,0,1,1l-.88,1c-.27-.24-.53-.48-.78-.74l-1.56.66A2.68,2.68,0,0,1,4.4,25.29Z"/><path class="cls-2" d="M11.77,21.25a6.72,6.72,0,0,1-2.56-6.1A6.67,6.67,0,0,1,21.12,11.9l-1.07.82a5.24,5.24,0,0,0-3.57-2,5.32,5.32,0,0,0-3.89,9.5Z"/></g></g></svg>