<svg id="Livello_1" data-name="Livello 1" xmlns="http://www.w3.org/2000/svg" viewBox="0 0 35 35"><defs><style>.cls-1{opacity:0.4;}.cls-2{fill:#0b1a28;}</style></defs><g id="Spunta"><g class="cls-1"><path class="cls-2" d="M24.63,18.36a3.09,3.09,0,0,0-3.51-.56L12.35,9,11.13,4.52a1.7,1.7,0,0,0-.78-1L4.92.67A1.22,1.22,0,0,0,3.56.88L.88,3.55A1.22,1.22,0,0,0,.67,4.93l2.87,5.42a1.7,1.7,0,0,0,1,.78L9,12.35l8.78,8.77a3,3,0,0,0,.56,3.52l8.93,8.93a3,3,0,0,0,4.3,0l2-2a3,3,0,0,0,0-4.29Zm8.08,12.37-2,2a1.78,1.78,0,0,1-1.29.54,1.81,1.81,0,0,1-1.28-.53l-8.94-8.94a1.82,1.82,0,0,1-.16-2.37.61.61,0,0,0-.06-.8L9.77,11.37a.57.57,0,0,0-.27-.16L4.83,10a.43.43,0,0,1-.21-.17L1.74,4.42,4.35,1.75,9.78,4.62a.5.5,0,0,1,.17.21L11.21,9.5a.61.61,0,0,0,.16.28L20.6,19a.6.6,0,0,0,.79.06,1.86,1.86,0,0,1,2.38.16l8.94,8.94A1.84,1.84,0,0,1,32.71,30.73Z"/><path class="cls-2" d="M18.28,13.24l4.93-4.92a.62.62,0,0,0,.16-.58,5.27,5.27,0,0,1,5.1-6.52h.08L26.24,3.54a.62.62,0,0,0-.16.58L27,7.57a.59.59,0,0,0,.43.42l3.44.93a.6.6,0,0,0,.59-.16l2.32-2.31a5.28,5.28,0,0,1-6.53,5.18.61.61,0,0,0-.57.16L22.17,16.3c.1,0,.2,0,.3,0a4.36,4.36,0,0,1,1.25.2l3.59-3.58A6.5,6.5,0,0,0,34.82,5a.61.61,0,0,0-1-.29L30.85,7.65l-2.76-.74-.74-2.76,2.94-2.94a.61.61,0,0,0-.29-1,6.49,6.49,0,0,0-7.89,7.51l-4.69,4.69Z"/><path class="cls-2" d="M16.27,22.21l-4.48,4.47a.62.62,0,0,0-.16.58,5.24,5.24,0,0,1-1.39,5,5.14,5.14,0,0,1-3.8,1.54l2.32-2.31a.64.64,0,0,0,.16-.59L8,27.44A.6.6,0,0,0,7.57,27l-3.45-.93a.62.62,0,0,0-.58.16L1.22,28.56a5.27,5.27,0,0,1,6.53-5.19.63.63,0,0,0,.57-.16l4.92-4.92-.86-.87L7.69,22.11A6.49,6.49,0,0,0,.18,30a.61.61,0,0,0,1,.29l2.94-2.94,2.76.74.74,2.76L4.71,33.8a.59.59,0,0,0-.16.59.61.61,0,0,0,.45.43A6.66,6.66,0,0,0,6.53,35a6.49,6.49,0,0,0,6.36-7.69l3.57-3.56A4.24,4.24,0,0,1,16.27,22.21Z"/></g></g></svg>