<svg id="Livello_1" data-name="Livello 1" xmlns="http://www.w3.org/2000/svg" viewBox="0 0 20 20"><defs><style>.cls-1{opacity:0.4;isolation:isolate;}</style></defs><path id="Tracciato_193" data-name="Tracciato 193" class="cls-1" d="M9.66,4.63h0V2.24h.67V4.63Zm-8.08,8,1.68-.3.67-.12h0l-.06-.33-.06-.33h0L1.47,12Zm14.83-5.9-1.2.69h0l.18.33.15.26h0l2.06-1.2-.33-.58ZM6,15.61l-.27-.22h0L4.2,17.21l.52.43.67-.79.86-1h0Zm11.26-.17.34-.58-.72-.41-1.35-.78h0l-.18.32-.15.26h0ZM1.47,9.67l.84.15,1.51.27h0l.1-.57v-.1h0L1.59,9ZM18.4,9l-.63.11-1.71.3h0l.08.49,0,.17h0l2.35-.42ZM7.56,5.12h0l.54-.2.09,0h0L7.37,2.64l-.63.23.12.32.7,1.92ZM2.71,15.42l2.06-1.19h0l-.26-.45-.07-.13h0L2.38,14.84l.33.58Zm11,.4,1.54,1.83.51-.43h0l-1.53-1.83h0l-.36.3-.16.13Zm-11.34-9h0L4.45,8h0l.29-.5,0-.08h0L2.72,6.24ZM18.52,12h0l-2.35-.42,0,.14-.09.52,2.34.41ZM4.73,4l-.51.43.56.67,1,1.16h0L6.05,6l.21-.17h0Zm7.7-.84-.62,1.69h0l.42.15.21.08h0l.82-2.24-.63-.23Zm1.69,3,.13.11h0l1.53-1.82L15.27,4h0L13.74,5.87h0ZM10,1.08A10,10,0,0,0,3.81,18.92h1a9.41,9.41,0,1,1,10.36,0h1A10,10,0,0,0,10,1.08ZM10.29,12l-.12,0L5.59,8l4.08,4.58a.17.17,0,0,0,0,.07.63.63,0,0,0,.63.64.64.64,0,0,0,.64-.64.63.63,0,0,0-.64-.63h0Z"/></svg>