<svg width="512" height="512" xmlns="http://www.w3.org/2000/svg">

 <g>
  <title>background</title>
  <rect fill="none" id="canvas_background" height="402" width="582" y="-1" x="-1"/>
 </g>
 <g>
  <title>Layer 1</title>
  <path id="svg_2" fill="#ffffff" d="m202.7,405.5c-54.2,0 -105.1,-21.1 -143.4,-59.4c-79.1,-79.1 -79.1,-207.7 0,-286.8c38.4,-38.3 89.3,-59.3 143.4,-59.3c54.2,0 105.1,21 143.4,59.3c38.3,38.3 59.4,89.2 59.4,143.4c0,54.2 -21.1,105.1 -59.4,143.4c-38.3,38.3 -89.2,59.4 -143.4,59.4zm0,-384.4c-48.5,0 -94.2,18.9 -128.5,53.2c-70.8,70.8 -70.8,186.1 0,257c34.3,34.3 79.9,53.2 128.5,53.2c48.5,0 94.2,-18.9 128.5,-53.2c34.3,-34.3 53.2,-79.9 53.2,-128.5c0,-48.5 -18.9,-94.2 -53.2,-128.5c-34.3,-34.4 -79.9,-53.2 -128.5,-53.2z"/>
  <path id="svg_3" fill="#ffffff" d="m501.5,512c-2.7,0 -5.4,-1 -7.5,-3.1l-162.8,-162.8c-4.1,-4.1 -4.1,-10.8 0,-14.9c4.1,-4.1 10.8,-4.1 14.9,0l162.9,162.8c4.1,4.1 4.1,10.8 0,14.9c-2.1,2.1 -4.8,3.1 -7.5,3.1z"/>
 </g>
</svg>