<svg id="Livello_1" data-name="Livello 1" xmlns="http://www.w3.org/2000/svg" viewBox="0 0 250 40"><defs><style>.cls-1{fill:#fff}</style></defs><g id="Spunta"><path class="cls-1" d="M246.71 10.63a4 4 0 001.41-.23 1.94 1.94 0 00.9-.62 1.44 1.44 0 00.31-.92 1.36 1.36 0 00-.32-.95 1.74 1.74 0 00-.75-.47c-.29-.08-.66-.16-1.12-.24a5.64 5.64 0 01-.88-.19.37.37 0 01-.28-.37.42.42 0 01.25-.37 1.75 1.75 0 01.78-.14 3.26 3.26 0 011.6.41l.53-1.14a3.32 3.32 0 00-1-.36 5.18 5.18 0 00-1.14-.13 3.83 3.83 0 00-1.38.23 2 2 0 00-.89.63 1.55 1.55 0 00-.3.94 1.38 1.38 0 00.32 1 1.87 1.87 0 00.77.47 8.35 8.35 0 001.13.24 4.15 4.15 0 01.85.17.36.36 0 01.28.34q0 .51-1 .51a3.72 3.72 0 01-1-.15 3.39 3.39 0 01-.9-.39l-.57 1.1a3.73 3.73 0 001.05.43 5.55 5.55 0 001.35.17m-6.51 0a4 4 0 001.41-.23 1.94 1.94 0 00.9-.62 1.44 1.44 0 00.31-.92 1.36 1.36 0 00-.32-.95 1.74 1.74 0 00-.75-.47c-.29-.08-.66-.16-1.12-.24a5.64 5.64 0 01-.88-.19.37.37 0 01-.28-.37.42.42 0 01.26-.37 1.7 1.7 0 01.77-.14 3.26 3.26 0 011.6.41l.53-1.14a3.32 3.32 0 00-1-.36 5.18 5.18 0 00-1.17-.13 3.83 3.83 0 00-1.38.23 1.91 1.91 0 00-.88.63 1.5 1.5 0 00-.31.94 1.34 1.34 0 00.33 1 1.77 1.77 0 00.76.47 8.7 8.7 0 001.13.24 4.44 4.44 0 01.86.17.36.36 0 01.27.34q0 .51-1 .51a3.77 3.77 0 01-1-.15 3.39 3.39 0 01-.9-.39L237.8 10a3.73 3.73 0 001 .43 5.55 5.55 0 001.35.17m-6.85-4.5a1.36 1.36 0 01.91.31 1.29 1.29 0 01.45.84H232a1.31 1.31 0 01.45-.84 1.38 1.38 0 01.92-.31m2.88 1.66a3 3 0 00-.38-1.52 2.57 2.57 0 00-1-1 3.17 3.17 0 00-1.48-.35 3 3 0 00-1.51.37 2.67 2.67 0 00-1.06 1 2.84 2.84 0 00-.39 1.47 2.78 2.78 0 00.39 1.47 2.64 2.64 0 001.12 1 3.66 3.66 0 001.66.37 2.89 2.89 0 002.29-.9L235 8.8a1.86 1.86 0 01-.62.41 2.3 2.3 0 01-.77.13 1.76 1.76 0 01-1.05-.3 1.29 1.29 0 01-.54-.82h4.2v-.43M226 4.91a3 3 0 00-1 .19 2.22 2.22 0 00-.79.54V5h-1.54v5.55h1.61V7.8a1.55 1.55 0 01.36-1.12 1.3 1.3 0 011-.38 1 1 0 01.84.33 1.45 1.45 0 01.29 1v2.93h1.61V7.37a2.48 2.48 0 00-.64-1.84 2.29 2.29 0 00-1.74-.62m-6.71-.69A1 1 0 00220 4a.88.88 0 00.28-.67.79.79 0 00-.28-.62 1 1 0 00-.72-.24 1 1 0 00-.72.25.84.84 0 00-.28.64.81.81 0 00.28.64 1 1 0 00.72.26m-.8 6.32h1.61V5h-1.61zm-4.65.09a3.93 3.93 0 001.41-.23 1.92 1.92 0 00.91-.62 1.49 1.49 0 00.3-.92 1.36 1.36 0 00-.31-.95 1.83 1.83 0 00-.76-.47q-.43-.12-1.11-.24a5.83 5.83 0 01-.89-.19.38.38 0 01-.28-.37.43.43 0 01.26-.37 1.7 1.7 0 01.77-.14 3.26 3.26 0 011.6.41l.54-1.14a3.52 3.52 0 00-1-.36 5.06 5.06 0 00-1.17-.13 3.78 3.78 0 00-1.37.23 1.94 1.94 0 00-.89.63 1.55 1.55 0 00-.3.94 1.34 1.34 0 00.32 1 1.81 1.81 0 00.77.47 8.17 8.17 0 001.12.24 4.28 4.28 0 01.86.17.36.36 0 01.28.34q0 .51-1 .51a3.72 3.72 0 01-1-.15 3.25 3.25 0 01-.9-.39l-.6 1.06a3.73 3.73 0 001.05.43 5.55 5.55 0 001.35.17m-6-5.64v2.78a1.62 1.62 0 01-.35 1.12 1.2 1.2 0 01-.93.37c-.75 0-1.12-.44-1.12-1.34V5h-1.61v3.13a2.49 2.49 0 00.64 1.87 2.36 2.36 0 001.73.63 2.49 2.49 0 001-.19 2.12 2.12 0 00.76-.56v.66h1.53V5zm-9.13 4.32a1.32 1.32 0 01-1-.42 1.54 1.54 0 01-.4-1.12 1.54 1.54 0 01.4-1.12 1.32 1.32 0 011-.42 1.34 1.34 0 011 .42 1.58 1.58 0 01.4 1.12 1.58 1.58 0 01-.4 1.12 1.34 1.34 0 01-1 .42m.28-4.4a2.17 2.17 0 00-1.67.67V2.89h-1.61v7.65h1.54V9.9a2.11 2.11 0 001.74.73 2.79 2.79 0 001.41-.36 2.67 2.67 0 001-1 3 3 0 00.36-1.5 3 3 0 00-.36-1.5 2.6 2.6 0 00-1-1 2.79 2.79 0 00-1.41-.36M16.06 31.65A6.94 6.94 0 0111 33.74a7.15 7.15 0 01-7.18-7.17 7 7 0 012.1-5.08 7 7 0 015.08-2.1 7 7 0 015.07 2.1 6.91 6.91 0 012.1 5.08 7 7 0 01-2.1 5.08m2.1-13.41A10.53 10.53 0 0011 15.56a10.63 10.63 0 00-7.76 3.23 11 11 0 000 15.54A10.62 10.62 0 0011 37.55a10.53 10.53 0 007.17-2.67v2.67H22v-22h-3.84zm30.54 8.33a7.18 7.18 0 11-14.35 0v-11h-3.83v11a11 11 0 0011 11 10.5 10.5 0 007.17-2.68v2.31h3.83V15.56h-3.82zM134 15.56a8.39 8.39 0 00-6.81 3.31 8.37 8.37 0 00-6.82-3.31 8.23 8.23 0 00-4.9 1.54v-1.54h-3.83v22h3.83V24.3a4.92 4.92 0 014.9-4.91 5 5 0 014.91 4.91v13.26h3.81V24.3a4.92 4.92 0 014.91-4.91 5 5 0 014.9 4.91v13.26h3.83V24.3a8.74 8.74 0 00-8.73-8.74m33.32 16.09a7.18 7.18 0 01-12.26-5.08 7.18 7.18 0 1112.26 5.08m2.09-13.41a10.5 10.5 0 00-7.17-2.68 11 11 0 00-11 11 11 11 0 0011 11 10.49 10.49 0 007.17-2.67v2.67h3.83v-22h-3.83zm16.19 0v-2.68h-3.82v22h3.82v-11a7.19 7.19 0 017.17-7.18h.4v-3.82h-.4a10.5 10.5 0 00-7.17 2.68m25.21 1.15a6.92 6.92 0 015.69 2.86l.12.16H221l-.31-.59c-2.23-4.15-5.55-6.26-9.89-6.26a11 11 0 00-11 11 11 11 0 0011 11c4.34 0 7.66-2.1 9.89-6.25l.31-.59h-4.39l-.12.16a6.8 6.8 0 01-5.69 2.87 7.18 7.18 0 01-5.08-12.25 7 7 0 015.08-2.1m33.27 12.25a7.21 7.21 0 01-10.15 0A7.18 7.18 0 01239 19.39a7.17 7.17 0 017.17 7.18 7 7 0 01-2.1 5.08m2.1-16.09v2.68a10.93 10.93 0 00-14.93.55 10.62 10.62 0 00-3.24 7.78 11 11 0 0011 11 10.53 10.53 0 007.17-2.68v2.68H250v-22zm-178.24 0v-6.1h-3.81v6.1h-3v3.83h3V30a7.56 7.56 0 007.55 7.56h3.83v-3.82h-3.83A3.7 3.7 0 0167.93 30V19.39h7.57v-3.83h-7.57zm29.64 16.09a7.17 7.17 0 01-12.23-5.08 7.17 7.17 0 1114.33 0 7 7 0 01-2.1 5.08m-5.06-16.09a11 11 0 00-11 11 11 11 0 0022 0 11 11 0 00-11-11m8.3-.73a13.49 13.49 0 00-16.61 0l-2-2.45a16.66 16.66 0 0120.69 0z"/><path class="cls-1" d="M95.68 26.56a3.18 3.18 0 11-3.18-3.17 3.17 3.17 0 013.18 3.17"/></g></svg>