<svg id="Livello_1" data-name="Livello 1" xmlns="http://www.w3.org/2000/svg" viewBox="0 0 250 40"><defs><style>.cls-1{fill:#fff}</style></defs><g id="Spunta"><path class="cls-1" d="M246.79 6a1.36 1.36 0 01.91.31 1.29 1.29 0 01.45.84h-2.73a1.33 1.33 0 01.45-.84 1.38 1.38 0 01.92-.31m2.88 1.66a3 3 0 00-.38-1.52 2.5 2.5 0 00-1-1 3.14 3.14 0 00-1.48-.35 3.07 3.07 0 00-1.51.37 2.67 2.67 0 00-1.06 1 2.78 2.78 0 00-.39 1.47 2.69 2.69 0 001.51 2.49 3.65 3.65 0 001.66.36 2.9 2.9 0 002.29-.89l-.86-.93a2 2 0 01-.62.41 2.3 2.3 0 01-.77.12 1.83 1.83 0 01-1.06-.3 1.36 1.36 0 01-.54-.82h4.2v-.43m-9.29 2.83a3 3 0 001.53-.37 2.21 2.21 0 001-1l-1.25-.68a1.33 1.33 0 01-1.24.76 1.42 1.42 0 01-1.05-.41 1.53 1.53 0 01-.41-1.12 1.55 1.55 0 01.41-1.13 1.46 1.46 0 011.05-.41 1.34 1.34 0 011.24.76l1.25-.67a2.18 2.18 0 00-1-1 3 3 0 00-1.53-.37 3.37 3.37 0 00-1.6.37 2.69 2.69 0 00-1.1 1 2.74 2.74 0 00-.4 1.48 2.7 2.7 0 00.4 1.47 2.78 2.78 0 001.1 1 3.49 3.49 0 001.6.36m-5.5-6.4a1 1 0 00.72-.26.88.88 0 00.28-.67.79.79 0 00-.28-.62 1.07 1.07 0 00-.72-.25 1 1 0 00-.72.26.83.83 0 00-.28.64.81.81 0 00.28.64 1 1 0 00.72.26m-.81 6.32h1.61V4.84h-1.61zm-2.72-5.55l-1.59 3.78-1.53-3.78h-1.66l2.33 5.55h1.66l2.34-5.55zm-7.54.73v-.77h-1.54v5.55h1.61V7.77a1.54 1.54 0 01.4-1.16 1.46 1.46 0 011.08-.39h.36V4.76a2.85 2.85 0 00-1.13.21 1.75 1.75 0 00-.78.6m-6 .41a1.36 1.36 0 01.91.31 1.39 1.39 0 01.45.84h-2.73a1.25 1.25 0 01.45-.84 1.37 1.37 0 01.92-.31m2.88 1.66a3 3 0 00-.38-1.52 2.53 2.53 0 00-1-1 3.13 3.13 0 00-1.47-.35 3 3 0 00-1.51.37 2.69 2.69 0 00-1.07 1 2.87 2.87 0 00-.38 1.47 2.78 2.78 0 00.39 1.47 2.74 2.74 0 001.11 1 3.68 3.68 0 001.66.36 2.89 2.89 0 002.29-.89l-.85-.93a2 2 0 01-.63.41 2.24 2.24 0 01-.76.12 1.86 1.86 0 01-1.08-.26 1.31 1.31 0 01-.53-.82h4.19v-.43m-9.57 2.83a3.94 3.94 0 001.41-.22 1.91 1.91 0 00.9-.62 1.46 1.46 0 00.31-.92 1.3 1.3 0 00-.32-1 1.65 1.65 0 00-.75-.47q-.43-.12-1.11-.24a4.65 4.65 0 01-.89-.2.37.37 0 01-.28-.36.43.43 0 01.26-.37 1.58 1.58 0 01.77-.14 3.15 3.15 0 011.6.41l.54-1.15a3.23 3.23 0 00-1-.35 5.06 5.06 0 00-1.17-.13 3.74 3.74 0 00-1.37.23 1.94 1.94 0 00-.89.63 1.53 1.53 0 00-.31.93 1.33 1.33 0 00.33 1 1.73 1.73 0 00.88.5 8.17 8.17 0 001.12.24 3.67 3.67 0 01.86.17.36.36 0 01.28.34q0 .51-1 .51a3.84 3.84 0 01-1-.15 3.18 3.18 0 01-.89-.39l-.54 1.16a3.47 3.47 0 001.05.42 5.1 5.1 0 001.35.17M16.06 31.8A7 7 0 0111 33.9a7.17 7.17 0 01-7.18-7.18 7 7 0 012.1-5.08A7 7 0 0111 19.55a6.94 6.94 0 015.07 2.09 6.91 6.91 0 012.1 5.08 7 7 0 01-2.1 5.08m2.1-13.41A10.57 10.57 0 0011 15.72a10.62 10.62 0 00-7.76 3.22 11 11 0 000 15.54A10.63 10.63 0 0011 37.71 10.53 10.53 0 0018.16 35v2.68H22v-22h-3.84zm30.54 8.33a7.18 7.18 0 11-14.35 0v-11h-3.83v11a11 11 0 0011 11A10.5 10.5 0 0048.71 35v2.32h3.83v-21.6h-3.83zm85.29-11a8.38 8.38 0 00-6.81 3.3 8.36 8.36 0 00-6.82-3.3 8.16 8.16 0 00-4.9 1.54v-1.54h-3.83v22h3.83V24.45a4.9 4.9 0 014.9-4.9 5 5 0 014.91 4.9v13.26h3.81V24.45a4.9 4.9 0 014.91-4.9 5 5 0 014.9 4.9v13.26h3.83V24.45a8.74 8.74 0 00-8.73-8.73m33.32 16.08a7.18 7.18 0 01-12.26-5.08 7.18 7.18 0 1112.26 5.08m2.09-13.41a11 11 0 00-14.93.55 11 11 0 000 15.54 10.63 10.63 0 007.76 3.23 10.5 10.5 0 007.17-2.71v2.68h3.83v-22h-3.83zm16.19 0v-2.67h-3.82v22h3.82v-11a7.17 7.17 0 017.17-7.17h.4v-3.83h-.4a10.54 10.54 0 00-7.17 2.67m25.21 1.16a6.89 6.89 0 015.69 2.86l.12.15H221l-.3-.56c-2.23-4.15-5.55-6.25-9.89-6.25a11 11 0 00-11 11 11 11 0 0011 11c4.34 0 7.66-2.11 9.89-6.26l.31-.59h-4.39l-.12.16a6.81 6.81 0 01-5.69 2.88 7.18 7.18 0 01-5.08-12.26 7 7 0 015.08-2.09m33.26 12.21a7.18 7.18 0 01-10.15 0 7 7 0 01-2.1-5.08 7.18 7.18 0 1114.35 0 7 7 0 01-2.1 5.08m2.1-16.08v2.67a11 11 0 00-14.93.55 10.62 10.62 0 00-3.24 7.78 11 11 0 0011 11 10.53 10.53 0 007.17-2.72v2.68H250v-22zm-178.24 0V9.61h-3.81v6.11h-3v3.83h3v10.61a7.56 7.56 0 007.55 7.55h3.83V33.9h-3.83a3.72 3.72 0 01-3.74-3.74V19.55h7.57v-3.83h-7.57zM97.57 31.8a7.17 7.17 0 01-12.23-5.08 7.17 7.17 0 1114.33 0 7 7 0 01-2.1 5.08m-5.06-16.08a11 11 0 00-11 11 11 11 0 0022 0 11 11 0 00-11-11m8.3-.72a13.49 13.49 0 00-16.61 0l-2-2.45a16.66 16.66 0 0120.69 0z"/><path class="cls-1" d="M95.68 26.71a3.18 3.18 0 11-3.18-3.17 3.18 3.18 0 013.18 3.17"/></g></svg>