<svg id="Livello_1" data-name="Livello 1" xmlns="http://www.w3.org/2000/svg" viewBox="0 0 33 33"><defs><style>.cls-3{fill:#fff}</style></defs><path id="Tracciato_223" data-name="Tracciato 223" d="M33 16.5A16.5 16.5 0 1016.5 33 16.5 16.5 0 0033 16.5z" fill="#a0a0a0"/><path id="Tracciato_224" data-name="Tracciato 224" d="M33 16.5A16.5 16.5 0 1016.5 33 16.5 16.5 0 0033 16.5z" fill="#3c9c44"/><g id="Raggruppa_848" data-name="Raggruppa 848"><path id="Tracciato_225" data-name="Tracciato 225" class="cls-3" d="M26.42 16.33a9.75 9.75 0 00-19.48-.18v.42a9.62 9.62 0 001.33 4.88.13.13 0 010 .12l-1.73 5.1a.11.11 0 000 .12.09.09 0 00.07 0L12 25.1a.14.14 0 01.11 0 9.75 9.75 0 0014.34-8.53zm-16.32 4.6a7.76 7.76 0 01-1.34-4.36v-.76a7.92 7.92 0 0115.81.19v.61a7.93 7.93 0 01-8 7.86 8 8 0 01-3.27-.74c-.29-.14-.84-.47-1-.57a.13.13 0 00-.12 0L9.53 24a.08.08 0 01-.1-.06l.86-2.55a.13.13 0 000-.13l-.17-.25z"/></g><path id="Tracciato_226" data-name="Tracciato 226" class="cls-3" d="M21.31 18.73a1.5 1.5 0 00-.48-.3c-.16-.09-1.38-.68-1.61-.77s-.42-.15-.62.15-.6.74-.74.91-.2.15-.42 0a8.18 8.18 0 01-1.87-1.15 6.71 6.71 0 01-1.3-1.6c-.1-.17 0-.25.09-.38s.43-.49.45-.53.16-.29.16-.29a.52.52 0 000-.47c0-.08-.67-1.59-.73-1.73-.18-.43-.37-.45-.55-.44s-.92 0-1.18.3h-.05a2.62 2.62 0 00-.79 2 3.16 3.16 0 00.11.81 5.42 5.42 0 00.86 1.65s.61.85.91 1.2a8.47 8.47 0 003.14 2.35 7.52 7.52 0 002.33.67 4.71 4.71 0 00.52-.09 2.43 2.43 0 001.66-1.16 2 2 0 00.11-1.13z"/></svg>