<svg id="Livello_1" data-name="Livello 1" xmlns="http://www.w3.org/2000/svg" viewBox="0 0 33 33"><defs><style>.cls-1{fill:#0b1a28}.cls-2{fill:#fff;stroke:#fff;stroke-width:.51px}</style></defs><circle id="Ellisse_57" data-name="Ellisse 57" class="cls-1" cx="16.5" cy="16.5" r="16.5"/><g id="Raggruppa_911" data-name="Raggruppa 911"><g id="Raggruppa_900" data-name="Raggruppa 900"><g id="Raggruppa_899" data-name="Raggruppa 899"><path id="Tracciato_240" data-name="Tracciato 240" class="cls-2" d="M25.51 21.66l-3.85-2.56a1.13 1.13 0 0 0-1.51.24L19 20.78a.47.47 0 0 1-.61.13l-.22-.11a13 13 0 0 1-3.36-2.64 13 13 0 0 1-2.61-3.36l-.11-.22a.48.48 0 0 1 .12-.62l1.45-1.12a1.12 1.12 0 0 0 .24-1.5l-2.57-3.85a1.12 1.12 0 0 0-1.51-.34l-1.61 1a2.3 2.3 0 0 0-1 1.35c-.61 2.07-.21 5.71 5.2 11.09 4.27 4.27 7.45 5.41 9.64 5.41a5.3 5.3 0 0 0 1.49-.19 2.27 2.27 0 0 0 1.35-1l1-1.61a1.12 1.12 0 0 0-.38-1.54zm-.2 1.19l-1 1.61a1.66 1.66 0 0 1-1 .75c-1.95.53-5.36.09-10.51-5.07S7.25 11.58 7.79 9.63a1.65 1.65 0 0 1 .75-1l1.62-1a.48.48 0 0 1 .65.15l1.4 2.09 1.17 1.76a.48.48 0 0 1-.11.65l-1.44 1.13a1.1 1.1 0 0 0-.29 1.42l.11.21a13.48 13.48 0 0 0 2.74 3.5 13.35 13.35 0 0 0 3.51 2.75l.21.12a1.1 1.1 0 0 0 1.42-.3l1.12-1.44a.5.5 0 0 1 .66-.11l3.85 2.57a.49.49 0 0 1 .14.66z"/><path id="Tracciato_241" data-name="Tracciato 241" class="cls-2" d="M17.76 10.16a5.4 5.4 0 0 1 5.4 5.39.32.32 0 1 0 .63 0 6 6 0 0 0-6-6 .32.32 0 1 0 0 .63z"/><path id="Tracciato_242" data-name="Tracciato 242" class="cls-2" d="M17.76 12.06a3.49 3.49 0 0 1 3.49 3.49.32.32 0 0 0 .64 0 4.12 4.12 0 0 0-4.13-4.12.32.32 0 0 0 0 .63z"/><path id="Tracciato_243" data-name="Tracciato 243" class="cls-2" d="M17.76 14a1.59 1.59 0 0 1 1.59 1.59.32.32 0 1 0 .63 0 2.21 2.21 0 0 0-2.22-2.22.32.32 0 0 0 0 .63z"/></g></g></g></svg>