<svg id="Livello_1" data-name="Livello 1" xmlns="http://www.w3.org/2000/svg" viewBox="0 0 33 33"><defs><style>.cls-2{fill:#fff;stroke:#fff;stroke-width:.51px}</style></defs><circle id="Ellisse_57" data-name="Ellisse 57" cx="16.5" cy="16.5" r="16.5" fill="#0b1a28"/><g id="Raggruppa_911" data-name="Raggruppa 911"><g id="Raggruppa_900" data-name="Raggruppa 900"><g id="Raggruppa_899" data-name="Raggruppa 899"><path id="Tracciato_240" data-name="Tracciato 240" class="cls-2" d="M25.51 21.66l-3.85-2.56a1.13 1.13 0 00-1.51.24L19 20.78a.47.47 0 01-.61.13l-.22-.11a13 13 0 01-3.36-2.64 13 13 0 01-2.61-3.36l-.11-.22a.48.48 0 01.12-.62l1.45-1.12a1.12 1.12 0 00.24-1.5l-2.57-3.85a1.12 1.12 0 00-1.51-.34l-1.61 1a2.3 2.3 0 00-1 1.35c-.61 2.07-.21 5.71 5.2 11.09 4.27 4.27 7.45 5.41 9.64 5.41a5.3 5.3 0 001.49-.19 2.27 2.27 0 001.35-1l1-1.61a1.12 1.12 0 00-.38-1.54zm-.2 1.19l-1 1.61a1.66 1.66 0 01-1 .75c-1.95.53-5.36.09-10.51-5.07S7.25 11.58 7.79 9.63a1.65 1.65 0 01.75-1l1.62-1a.48.48 0 01.65.15l1.4 2.09 1.17 1.76a.48.48 0 01-.11.65l-1.44 1.13a1.1 1.1 0 00-.29 1.42l.11.21a13.48 13.48 0 002.74 3.5 13.35 13.35 0 003.51 2.75l.21.12a1.1 1.1 0 001.42-.3l1.12-1.44a.5.5 0 01.66-.11l3.85 2.57a.49.49 0 01.14.66z"/><path id="Tracciato_241" data-name="Tracciato 241" class="cls-2" d="M17.76 10.16a5.4 5.4 0 015.4 5.39.32.32 0 10.63 0 6 6 0 00-6-6 .32.32 0 100 .63z"/><path id="Tracciato_242" data-name="Tracciato 242" class="cls-2" d="M17.76 12.06a3.49 3.49 0 013.49 3.49.32.32 0 00.64 0 4.12 4.12 0 00-4.13-4.12.32.32 0 000 .63z"/><path id="Tracciato_243" data-name="Tracciato 243" class="cls-2" d="M17.76 14a1.59 1.59 0 011.59 1.59.32.32 0 10.63 0 2.21 2.21 0 00-2.22-2.22.32.32 0 000 .63z"/></g></g></g></svg>