<svg version="1.1" id="Livello_1" xmlns="http://www.w3.org/2000/svg" x="0" y="0" viewBox="0 0 300 50" xml:space="preserve"><style>.st0{fill:#fff}</style><path class="st0" d="M19.3 35.2c-1.7 1.7-3.7 2.5-6.1 2.5s-4.4-.8-6.1-2.5c-1.7-1.7-2.5-3.7-2.5-6.1 0-2.4.8-4.4 2.5-6.1 1.7-1.7 3.7-2.5 6.1-2.5 2.4 0 4.4.8 6.1 2.5 1.6 1.7 2.5 3.7 2.5 6.1 0 2.3-.8 4.4-2.5 6.1m2.5-16.1c-2.4-2.1-5.3-3.2-8.6-3.2-3.6 0-6.8 1.3-9.3 3.9C1.3 22.3 0 25.5 0 29.1s1.3 6.8 3.9 9.3c2.5 2.5 5.7 3.9 9.3 3.9 3.3 0 6.2-1.1 8.6-3.2v3.2h4.6V15.8h-4.6v3.3zM58.5 29c0 2.3-.8 4.4-2.5 6.1-1.7 1.7-3.7 2.5-6.1 2.5-2.3 0-4.4-.8-6.1-2.5-1.7-1.7-2.5-3.7-2.5-6.1V15.8h-4.6V29c0 3.6 1.3 6.8 3.9 9.3 2.5 2.5 5.7 3.9 9.3 3.9 3.3 0 6.2-1.1 8.6-3.2v2.8h4.6v-26h-4.6V29zm58.6 6.2c-1.7 1.7-3.7 2.5-6.1 2.5-2.4 0-4.4-.8-6.1-2.5-1.7-1.7-2.5-3.7-2.5-6.1 0-2.4.8-4.4 2.5-6.1 1.7-1.6 3.7-2.5 6.1-2.5 2.3 0 4.4.8 6.1 2.5 1.7 1.7 2.5 3.7 2.5 6.1s-.8 4.4-2.5 6.1m-6-19.4c-3.6 0-6.8 1.3-9.3 3.9-2.5 2.5-3.9 5.7-3.9 9.3s1.3 6.8 3.9 9.3c2.5 2.5 5.7 3.9 9.3 3.9 3.6 0 6.8-1.3 9.3-3.9 2.5-2.5 3.9-5.7 3.9-9.3s-1.3-6.8-3.9-9.3-5.7-3.9-9.3-3.9m9.9-.8c-2.8-2.3-6.1-3.5-9.9-3.5-3.9 0-7.3 1.1-9.9 3.5l-2.5-3c3.5-2.9 7.6-4.3 12.4-4.3s9 1.5 12.4 4.3l-2.5 3zm39.8.8c-3.3 0-6.1 1.3-8.2 4-2.1-2.6-4.9-4-8.2-4-2.2 0-4.2.6-5.9 1.8v-1.8H134v26.4h4.6V26.3c0-1.6.6-3 1.7-4.2 1.2-1.2 2.5-1.8 4.2-1.8s3 .6 4.2 1.8c1.2 1.1 1.8 2.5 1.8 4.2v15.9h4.6V26.3c0-1.6.6-3 1.7-4.2 1.2-1.2 2.5-1.8 4.2-1.8 1.6 0 3 .6 4.2 1.8 1.2 1.1 1.8 2.5 1.8 4.2v15.9h4.6V26.3c0-2.9-1.1-5.4-3.1-7.4-2.3-2-4.8-3.1-7.7-3.1m40 19.4c-1.7 1.7-3.7 2.5-6.1 2.5-2.3 0-4.4-.8-6.1-2.5-1.7-1.7-2.5-3.7-2.5-6.1 0-2.4.8-4.4 2.5-6.1 1.7-1.7 3.7-2.5 6.1-2.5 2.4 0 4.4.8 6.1 2.5 1.7 1.7 2.5 3.7 2.5 6.1s-.8 4.4-2.5 6.1m2.5-16.1c-2.4-2.1-5.3-3.2-8.6-3.2-3.6 0-6.8 1.3-9.3 3.9-2.5 2.5-3.9 5.7-3.9 9.3s1.3 6.8 3.9 9.3c2.5 2.5 5.7 3.9 9.3 3.9 3.3 0 6.2-1.1 8.6-3.2v3.2h4.6V15.8h-4.6v3.3zm19.4 0v-3.2h-4.6v26.4h4.6V29c0-2.3.8-4.4 2.5-6.1 1.7-1.7 3.7-2.5 6.1-2.5h.5v-4.6h-.5c-3.3 0-6.2 1.2-8.6 3.3m30.3 1.3c2.8 0 5.1 1.1 6.8 3.5l.1.2h5.3l-.4-.7c-2.7-5-6.6-7.5-11.9-7.5-3.6 0-6.8 1.3-9.3 3.9-2.5 2.5-3.9 5.7-3.9 9.3s1.3 6.8 3.9 9.3c2.5 2.5 5.7 3.9 9.3 3.9 5.2 0 9.2-2.5 11.9-7.5l.4-.7H260l-.1.2c-1.8 2.3-4 3.5-6.8 3.5-2.3 0-4.4-.8-6.1-2.5-1.7-1.7-2.5-3.7-2.5-6.1 0-2.4.8-4.4 2.5-6.1 1.6-1.8 3.6-2.7 6-2.7m39.9 14.8c-1.7 1.7-3.7 2.5-6.1 2.5s-4.4-.8-6.1-2.5c-1.7-1.7-2.5-3.7-2.5-6.1 0-2.4.8-4.4 2.5-6.1 1.7-1.7 3.7-2.5 6.1-2.5 2.4 0 4.4.8 6.1 2.5 1.7 1.7 2.5 3.7 2.5 6.1 0 2.3-.8 4.4-2.5 6.1m2.5-19.4V19c-2.4-2.1-5.3-3.2-8.6-3.2-3.6 0-6.8 1.3-9.3 3.9-2.5 2.5-3.9 5.7-3.9 9.3s1.3 6.8 3.9 9.3c2.5 2.5 5.7 3.9 9.3 3.9 3.3 0 6.2-1.1 8.6-3.2v3.2h4.6V15.8h-4.6zm-213.8 0V8.5H77v7.3h-3.7v4.6H77v12.7c0 2.5.9 4.7 2.7 6.4 1.8 1.8 4 2.7 6.4 2.7h4.6v-4.6h-4.6c-1.3 0-2.3-.4-3.2-1.3-.8-.9-1.3-2-1.3-3.2V20.5h9.1v-4.6h-3.6l-5.5-.1z"/><path class="st0" d="M114.9 29c0 2.1-1.7 3.8-3.8 3.8-2.1 0-3.8-1.7-3.8-3.8s1.7-3.8 3.8-3.8c2 0 3.8 1.7 3.8 3.8"/></svg>