<svg id="Livello_1" data-name="Livello 1" xmlns="http://www.w3.org/2000/svg" viewBox="0 0 250 40"><defs><style>.cls-1{fill:#fff}</style></defs><g id="Spunta"><path class="cls-1" d="M246.66 9.15a1.39 1.39 0 0 1-1-.41 1.55 1.55 0 0 1-.4-1.12 1.54 1.54 0 0 1 .4-1.12 1.36 1.36 0 0 1 1-.42 1.33 1.33 0 0 1 1 .42 1.58 1.58 0 0 1 .4 1.12 1.6 1.6 0 0 1-.4 1.12 1.36 1.36 0 0 1-1 .41m0 1.32a3.33 3.33 0 0 0 1.57-.36 2.82 2.82 0 0 0 1.09-1 2.78 2.78 0 0 0 .39-1.47 2.85 2.85 0 0 0-.39-1.48 2.79 2.79 0 0 0-1.09-1 3.22 3.22 0 0 0-1.57-.37 3.28 3.28 0 0 0-1.57.37 2.73 2.73 0 0 0-1.09 1 2.85 2.85 0 0 0-.39 1.48 2.78 2.78 0 0 0 .39 1.45 2.75 2.75 0 0 0 1.09 1 3.39 3.39 0 0 0 1.57.36m-6-6.4a1 1 0 0 0 .72-.26.88.88 0 0 0 .28-.67.79.79 0 0 0-.28-.62 1.14 1.14 0 0 0-1.44 0 .83.83 0 0 0-.28.64.81.81 0 0 0 .28.64 1 1 0 0 0 .72.26m-.8 6.32h1.61V4.84h-1.61zm-5.54-1.56a1.48 1.48 0 0 1-1-.37 1.26 1.26 0 0 1-.42-1 1.26 1.26 0 0 1 .42-1 1.63 1.63 0 0 1 2.09 0 1.25 1.25 0 0 1 .41 1 1.26 1.26 0 0 1-.41 1 1.47 1.47 0 0 1-1 .37m1.51-4v.71a2.19 2.19 0 0 0-1.92-.75 3 3 0 0 0-1.4.33 2.63 2.63 0 0 0-1 1 2.68 2.68 0 0 0-.37 1.4 2.68 2.68 0 0 0 .37 1.4 2.63 2.63 0 0 0 1 .95 3 3 0 0 0 1.4.33 2.25 2.25 0 0 0 1.75-.69v.24a1.48 1.48 0 0 1-.4 1.14 1.72 1.72 0 0 1-1.23.38 3.62 3.62 0 0 1-1.07-.17 2.87 2.87 0 0 1-.89-.46l-.64 1.15a3.35 3.35 0 0 0 1.2.57 5.83 5.83 0 0 0 1.53.2 3.27 3.27 0 0 0 2.32-.75 3 3 0 0 0 .79-2.27V4.84zm-9.76 4a1.52 1.52 0 0 1-1.16-.37 1.29 1.29 0 0 1-.41-1 1.28 1.28 0 0 1 .41-1 1.53 1.53 0 0 1 1.06-.38 1.48 1.48 0 0 1 1 .38 1.28 1.28 0 0 1 .41 1 1.29 1.29 0 0 1-.41 1 1.47 1.47 0 0 1-1 .37m1.51-4v.71a2.19 2.19 0 0 0-1.83-.79 3 3 0 0 0-1.4.33 2.63 2.63 0 0 0-1 1 2.59 2.59 0 0 0-.37 1.4 2.59 2.59 0 0 0 .37 1.4 2.63 2.63 0 0 0 1 .95 3 3 0 0 0 1.4.33 2.25 2.25 0 0 0 1.75-.69v.24a1.48 1.48 0 0 1-.4 1.14 1.72 1.72 0 0 1-1.23.38 3.57 3.57 0 0 1-1.06-.2 2.76 2.76 0 0 1-.89-.46l-.64 1.15a3.35 3.35 0 0 0 1.2.57 5.81 5.81 0 0 0 1.52.2 3.25 3.25 0 0 0 2.32-.75 3 3 0 0 0 .8-2.27v-4.6zM218.4 6a1.36 1.36 0 0 1 .91.31 1.29 1.29 0 0 1 .45.84H217a1.29 1.29 0 0 1 .45-.84 1.38 1.38 0 0 1 .95-.31m2.88 1.66a3 3 0 0 0-.38-1.52 2.5 2.5 0 0 0-1-1 3.17 3.17 0 0 0-1.48-.35 3 3 0 0 0-1.51.37 2.67 2.67 0 0 0-1.06 1 2.78 2.78 0 0 0-.39 1.47 2.78 2.78 0 0 0 .39 1.47 2.7 2.7 0 0 0 1.12 1 3.65 3.65 0 0 0 1.66.36 2.92 2.92 0 0 0 2.29-.89l-.92-.92a2 2 0 0 1-.62.41 2.3 2.3 0 0 1-.77.12 1.76 1.76 0 0 1-1-.29 1.32 1.32 0 0 1-.54-.82h4.2v-.43m-9.57 2.75h1.61V2.74h-1.61zm-5.15-1.24a1.39 1.39 0 0 1-1-.41 1.55 1.55 0 0 1-.4-1.12 1.54 1.54 0 0 1 .4-1.12 1.45 1.45 0 0 1 2 0 1.57 1.57 0 0 1 .45 1.12 1.59 1.59 0 0 1-.39 1.12 1.39 1.39 0 0 1-1 .41m0 1.32a3.36 3.36 0 0 0 1.57-.36 2.72 2.72 0 0 0 1.08-1 2.78 2.78 0 0 0 .39-1.47 2.85 2.85 0 0 0-.39-1.48 2.7 2.7 0 0 0-1.08-1 3.52 3.52 0 0 0-3.14 0 2.66 2.66 0 0 0-1.09 1 2.85 2.85 0 0 0-.39 1.48 2.78 2.78 0 0 0 .39 1.47 2.68 2.68 0 0 0 1.09 1 3.36 3.36 0 0 0 1.57.36m-7.49-5.71A2.71 2.71 0 0 0 198 5a2.14 2.14 0 0 0-.79.54v-.7h-1.51v5.55h1.61V7.65a1.55 1.55 0 0 1 .36-1.12 1.28 1.28 0 0 1 1-.38 1 1 0 0 1 .83.33 1.38 1.38 0 0 1 .29 1v2.93h1.61v-3.2a2.45 2.45 0 0 0-.63-1.83 2.31 2.31 0 0 0-1.67-.62M16.06 31.8A7 7 0 0 1 11 33.9a7.17 7.17 0 0 1-7.18-7.18 7 7 0 0 1 2.1-5.08A7 7 0 0 1 11 19.55a6.94 6.94 0 0 1 5.07 2.09 6.91 6.91 0 0 1 2.1 5.08 7 7 0 0 1-2.1 5.08m2.1-13.41A10.57 10.57 0 0 0 11 15.72a10.62 10.62 0 0 0-7.76 3.22 11 11 0 0 0 0 15.54A10.63 10.63 0 0 0 11 37.71 10.53 10.53 0 0 0 18.16 35v2.68H22v-22h-3.84zm30.54 8.33a7.18 7.18 0 1 1-14.35 0v-11h-3.83v11a11 11 0 0 0 11 11A10.5 10.5 0 0 0 48.71 35v2.32h3.83v-21.6h-3.83zm48.86 5.08a7.17 7.17 0 0 1-12.23-5.08 7.17 7.17 0 1 1 14.33 0 7 7 0 0 1-2.1 5.08m-5.06-16.08a11 11 0 0 0-11 11 11 11 0 0 0 22 0 11 11 0 0 0-11-11m8.3-.72a13.49 13.49 0 0 0-16.61 0l-2-2.45a16.7 16.7 0 0 1 20.69 0zm33.19.72a8.38 8.38 0 0 0-6.81 3.3 8.36 8.36 0 0 0-6.82-3.3 8.16 8.16 0 0 0-4.9 1.54v-1.54h-3.83v22h3.83V24.45a4.9 4.9 0 0 1 4.9-4.9 5 5 0 0 1 4.91 4.9v13.26h3.81V24.45a4.9 4.9 0 0 1 4.91-4.9 5 5 0 0 1 4.9 4.9v13.26h3.83V24.45a8.74 8.74 0 0 0-8.73-8.73m33.32 16.08a7.18 7.18 0 0 1-12.26-5.08 7.18 7.18 0 1 1 12.26 5.08m2.09-13.41a11 11 0 0 0-14.93.55 11 11 0 0 0 0 15.54 10.63 10.63 0 0 0 7.76 3.23 10.5 10.5 0 0 0 7.17-2.71v2.68h3.83v-22h-3.83zm16.19 0v-2.67h-3.82v22h3.82v-11a7.17 7.17 0 0 1 7.17-7.17h.4v-3.83h-.4a10.54 10.54 0 0 0-7.17 2.67m25.21 1.16a6.89 6.89 0 0 1 5.69 2.86l.12.15H221l-.3-.56c-2.23-4.15-5.55-6.25-9.89-6.25a11 11 0 0 0-11 11 11 11 0 0 0 11 11c4.34 0 7.66-2.11 9.89-6.26l.31-.59h-4.39l-.12.16a6.78 6.78 0 0 1-5.69 2.88 7.18 7.18 0 0 1-5.08-12.26 7 7 0 0 1 5.08-2.09m33.26 12.21a7.18 7.18 0 0 1-10.15 0 7 7 0 0 1-2.1-5.08 7.18 7.18 0 1 1 14.35 0 7 7 0 0 1-2.1 5.08m2.1-16.08v2.67a11 11 0 0 0-14.93.55 10.62 10.62 0 0 0-3.24 7.78 11 11 0 0 0 11 11 10.53 10.53 0 0 0 7.17-2.72v2.68H250v-22zm-178.24 0V9.61h-3.81v6.11h-3v3.83h3v10.61a7.56 7.56 0 0 0 7.55 7.55h3.83V33.9h-3.83a3.72 3.72 0 0 1-3.74-3.74V19.55h7.57v-3.83h-7.57z"/><path class="cls-1" d="M95.68 26.71a3.18 3.18 0 1 1-3.18-3.17 3.18 3.18 0 0 1 3.18 3.17"/></g></svg>