<svg id="Livello_1" data-name="Livello 1" xmlns="http://www.w3.org/2000/svg" viewBox="0 0 250 40"><defs><style>.cls-1{fill:#fff}</style></defs><g id="Spunta"><path class="cls-1" d="M247.13 10.39a4 4 0 0 0 1.41-.22 1.91 1.91 0 0 0 .9-.62 1.46 1.46 0 0 0 .31-.92 1.3 1.3 0 0 0-.32-1 1.65 1.65 0 0 0-.75-.47q-.44-.12-1.11-.24a4.47 4.47 0 0 1-.89-.2.36.36 0 0 1-.28-.36.43.43 0 0 1 .26-.37 1.7 1.7 0 0 1 .77-.14 3.15 3.15 0 0 1 1.6.41l.54-1.15a3.52 3.52 0 0 0-1-.35 5.18 5.18 0 0 0-1.17-.13 3.83 3.83 0 0 0-1.38.23 2 2 0 0 0-.88.63 1.47 1.47 0 0 0-.31.93 1.33 1.33 0 0 0 .33 1 1.68 1.68 0 0 0 .77.48 8.17 8.17 0 0 0 1.12.24 3.67 3.67 0 0 1 .86.17.36.36 0 0 1 .28.34c0 .34-.34.51-1 .51a3.77 3.77 0 0 1-1-.15 3.18 3.18 0 0 1-.89-.39l-.54 1.16a3.47 3.47 0 0 0 1.05.42 5.1 5.1 0 0 0 1.35.17m-6-5.63v2.77a1.63 1.63 0 0 1-.35 1.12 1.21 1.21 0 0 1-.93.37c-.75 0-1.12-.45-1.12-1.34v-2.9h-1.61V7.9a2.51 2.51 0 0 0 .64 1.87 2.65 2.65 0 0 0 2.69.43 2.06 2.06 0 0 0 .76-.55v.66h1.53V4.76zM233 10.31h1.61V2.66H233zm-5.15-1.24a1.35 1.35 0 0 1-1-.41 1.55 1.55 0 0 1-.4-1.12 1.54 1.54 0 0 1 .4-1.12 1.44 1.44 0 0 1 2 0 1.54 1.54 0 0 1 .4 1.12 1.55 1.55 0 0 1-.4 1.12 1.36 1.36 0 0 1-1 .41m.28-4.39a2.14 2.14 0 0 0-1.74.72v-.64h-1.54v7.55h1.61V9.72a2.13 2.13 0 0 0 1.67.67 2.78 2.78 0 0 0 1.41-.35 2.6 2.6 0 0 0 1-1 3 3 0 0 0 .36-1.5 3 3 0 0 0-.36-1.5 2.53 2.53 0 0 0-1-1 2.79 2.79 0 0 0-1.41-.36m-5.68 1.39h-1.8V4.32h-1.33v1.75h-1.78v1.26h1.78v1.75h1.33V7.33h1.8zM16.06 31.42A6.94 6.94 0 0 1 11 33.51a7.15 7.15 0 0 1-7.18-7.17 7 7 0 0 1 2.1-5.08 7 7 0 0 1 5.08-2.1 7 7 0 0 1 5.07 2.1 6.91 6.91 0 0 1 2.1 5.08 7 7 0 0 1-2.1 5.08M18.16 18A10.53 10.53 0 0 0 11 15.33a10.63 10.63 0 0 0-7.76 3.23A10.66 10.66 0 0 0 0 26.34a10.63 10.63 0 0 0 3.23 7.76A10.62 10.62 0 0 0 11 37.32a10.57 10.57 0 0 0 7.17-2.67v2.67H22v-22h-3.84zm30.55 8.34a7.18 7.18 0 1 1-14.35 0v-11h-3.83v11a11 11 0 0 0 11 11 10.54 10.54 0 0 0 7.17-2.67V37h3.83V15.33h-3.82zM134 15.33a8.36 8.36 0 0 0-6.81 3.31 8.34 8.34 0 0 0-6.82-3.31 8.23 8.23 0 0 0-4.9 1.54v-1.54h-3.83v22h3.83V24.07a4.89 4.89 0 0 1 8.36-3.46 4.62 4.62 0 0 1 1.45 3.46v13.25h3.81V24.07a4.89 4.89 0 0 1 8.36-3.46 4.62 4.62 0 0 1 1.45 3.46v13.25h3.83V24.07a8.74 8.74 0 0 0-8.73-8.74m33.32 16.09a7.18 7.18 0 0 1-12.26-5.08 7.18 7.18 0 1 1 12.26 5.08M169.41 18a10.5 10.5 0 0 0-7.17-2.68 11 11 0 0 0-11 11 11 11 0 0 0 11 11 10.54 10.54 0 0 0 7.17-2.67v2.67h3.83v-22h-3.83zm16.19 0v-2.67h-3.82v22h3.82v-11a7.19 7.19 0 0 1 7.17-7.18h.4v-3.82h-.4A10.5 10.5 0 0 0 185.6 18m25.21 1.16A6.92 6.92 0 0 1 216.5 22l.12.16H221l-.31-.59c-2.23-4.15-5.55-6.26-9.89-6.26a11 11 0 0 0-11 11 11 11 0 0 0 11 11c4.34 0 7.66-2.1 9.89-6.25l.31-.59h-4.39l-.12.16a6.8 6.8 0 0 1-5.69 2.87 7.18 7.18 0 0 1-5.08-12.25 7 7 0 0 1 5.08-2.1m33.27 12.27a7.21 7.21 0 0 1-10.15 0A7.18 7.18 0 0 1 239 19.16a7.17 7.17 0 0 1 7.17 7.18 7 7 0 0 1-2.1 5.08m2.1-16.09V18a10.93 10.93 0 0 0-14.93.55 10.62 10.62 0 0 0-3.24 7.79 11 11 0 0 0 18.16 8.31v2.67H250v-22zm-178.24 0v-6.1h-3.81v6.1h-3v3.83h3v10.61a7.55 7.55 0 0 0 7.55 7.55h3.83v-3.81h-3.83a3.7 3.7 0 0 1-3.74-3.74V19.16h7.57v-3.83h-7.57zm29.64 16.09a7.17 7.17 0 0 1-12.23-5.08 7.17 7.17 0 1 1 14.33 0 7 7 0 0 1-2.1 5.08m-5.06-16.09a11 11 0 0 0-11 11 11 11 0 0 0 22 0 11 11 0 0 0-11-11m8.3-.73a13.49 13.49 0 0 0-16.61 0l-2-2.45a16.66 16.66 0 0 1 20.69 0z"/><path class="cls-1" d="M95.68 26.33a3.18 3.18 0 1 1-3.18-3.18 3.17 3.17 0 0 1 3.18 3.18"/></g></svg>