<svg id="Livello_1" data-name="Livello 1" xmlns="http://www.w3.org/2000/svg" viewBox="0 0 20 20"><defs><style>.cls-1{fill:#fff}</style></defs><g id="Spunta"><g id="Raggruppa_750" data-name="Raggruppa 750"><g id="Raggruppa_749" data-name="Raggruppa 749"><g id="Raggruppa_748" data-name="Raggruppa 748"><path id="Tracciato_195" data-name="Tracciato 195" class="cls-1" d="M20 9.49A9.8 9.8 0 00.41 9.31v.43a9.62 9.62 0 001.33 4.9.11.11 0 010 .11L0 19.88a.08.08 0 000 .11.06.06 0 00.06 0l5.4-1.69a.13.13 0 01.12 0 9.91 9.91 0 004.62 1.15A9.78 9.78 0 0020 9.73v-.24zM3.58 14.12a7.79 7.79 0 01-1.34-4.38 6.62 6.62 0 010-.77 8 8 0 0115.84.15v.61a8 8 0 01-11.25 7.16c-.29-.14-.84-.47-1-.57a.11.11 0 00-.11 0L3 17.16a.08.08 0 01-.1-.05v-.05l.87-2.56a.14.14 0 000-.13c0-.08-.14-.2-.18-.25z"/></g><path id="Tracciato_196" data-name="Tracciato 196" class="cls-1" d="M14.85 11.9a2.15 2.15 0 00-.48-.3c-.17-.08-1.39-.69-1.62-.77s-.43-.15-.63.15-.59.74-.74.91-.19.16-.42 0a7.71 7.71 0 01-1.88-1.15 6.71 6.71 0 01-1.3-1.6c-.11-.17 0-.26.09-.38s.42-.5.46-.54.15-.22.15-.22a.53.53 0 000-.49c0-.07-.67-1.59-.73-1.73-.18-.43-.37-.45-.55-.44s-.92 0-1.19.3a2.69 2.69 0 00-.8 2 3.34 3.34 0 00.13.82 5.28 5.28 0 00.85 1.65s.62.86.93 1.21a8.37 8.37 0 003.15 2.36 7.31 7.31 0 002.34.67l.53-.08a2.5 2.5 0 001.66-1.17 1.94 1.94 0 00.05-1.2z"/></g></g></g></svg>