<svg version="1.1" id="Livello_1" xmlns="http://www.w3.org/2000/svg" x="0" y="0" viewBox="0 0 25 25" xml:space="preserve"><style>.st0{fill:#0b1a28}</style><path class="st0" d="M22 19.4l-1 1.7c-.2.4-.6.7-1 .8-2.1.6-5.8.1-11.4-5.5C3 10.9 2.5 7.2 3.1 5.1c.1-.4.4-.8.8-1l1.7-1c.2-.1.6-.1.7.2l1.5 2.3 1.3 1.9c.2 0 .1.3-.1.5L7.4 9.2c-.5.4-.6 1-.3 1.5l.1.3c.4.8 1 1.8 3 3.8 2 2 3 2.5 3.8 3l.2.1c.5.3 1.2.2 1.5-.3L17 16c.2-.2.5-.3.7-.1l4.2 2.8c.2.1.3.4.1.7zm.3-1.3l-4.2-2.8c-.5-.4-1.2-.2-1.6.3l-1.2 1.6c-.2.2-.4.3-.7.1l-.2-.1c-.8-.4-1.7-.9-3.6-2.9s-2.4-2.9-2.9-3.6l-.1-.2c-.1-.2-.1-.5.1-.7l1.6-1.2c.4-.5.5-1.2.2-1.7L6.9 2.7c-.4-.5-1.1-.7-1.6-.3l-1.7 1c-.6.3-1 .9-1.2 1.5-.6 2.3-.2 6.2 5.7 12.1 4.6 4.6 8.1 5.9 10.4 5.9.5 0 1.1-.1 1.6-.2.6-.2 1.1-.6 1.5-1.1l1-1.7c.4-.7.2-1.4-.3-1.8z"/><path class="st0" d="M18.5 23.1c-3.1 0-6.7-2-10.7-6C2 11.2 1.5 7.2 2.1 4.8c.2-.7.6-1.3 1.2-1.6l1.7-1c.7-.4 1.6-.2 2 .5l2.8 4.2c.4.6.3 1.5-.3 2L8 10c-.1 0-.1.2 0 .3l.1.2c.4.8.9 1.7 2.8 3.6 1.9 1.9 2.8 2.4 3.6 2.8l.2.1c.1.1.2 0 .3-.1l1.2-1.6c.5-.6 1.4-.8 2-.3l4.2 2.8c.7.4.9 1.3.5 2l-1 1.7c-.4.6-.9 1.1-1.6 1.2-.6.3-1.2.4-1.8.4zM5.9 2.5c-.2 0-.3 0-.5.1l-1.7 1c-.5.3-.8.7-1 1.3-.6 2.3-.2 6.1 5.6 11.8 3.8 3.8 7.3 5.8 10.3 5.8.5 0 1-.1 1.5-.2.5-.2 1-.5 1.3-1l1.1-1.7c.3-.4.1-1-.3-1.3L18 15.5c-.4-.3-1-.2-1.3.2l-1.2 1.6c-.2.3-.7.4-1 .2l-.2-.1c-.8-.4-1.8-1-3.7-2.9-2-2-2.5-2.9-2.9-3.7l-.1-.2c-.2-.3-.1-.8.2-1l1.6-1.2c.2-.4.3-.9.1-1.3L6.7 2.9c-.2-.3-.5-.4-.8-.4zm12.6 19.9c-2.3 0-5.6-1.2-10.2-5.8C2.7 11 2.2 7.2 2.8 5c.1-.5.5-1 .9-1.2l1.7-1c.4-.3.9-.2 1.2.2l2.8 4.2c.2.3.1.8-.2 1L7.6 9.4c-.4.3-.5.8-.2 1.2l.1.2c.4.8 1 1.8 2.9 3.7 2 2 2.9 2.5 3.7 2.9l.2.1c.4.2.9.1 1.2-.2l1.2-1.6c.3-.3.7-.4 1.1-.2l4.2 2.8c.4.2.5.7.2 1.1l-1 1.7c-.3.5-.7.8-1.2.9-.4.3-.9.4-1.5.4zM5.9 3.2h-.1L4 4.2c-.3.2-.6.6-.7.9-.6 2-.1 5.6 5.4 11.1s9.1 6 11.1 5.4c.4-.1.7-.3.9-.7l1-1.7c.1-.1 0-.3-.1-.3l-4.2-2.8c-.1-.1-.3 0-.3.1L16 17.7c-.4.6-1.3.7-1.9.4l-.2-.1c-.8-.4-1.8-1-3.9-3-2-2-2.6-3-3-3.9l-.1-.2c-.4-.6-.2-1.5.4-1.9l1.6-1.2c0-.1.1-.3 0-.4L6.1 3.3c0-.1-.1-.1-.2-.1zm8 2.4c3.2 0 5.8 2.6 5.8 5.8 0 .2.2.3.3.3.2 0 .3-.2.3-.3 0-3.6-2.9-6.5-6.5-6.5-.2 0-.3.2-.3.3s.2.4.4.4z"/><path class="st0" d="M20.1 12.1c-.3 0-.6-.3-.6-.6 0-3.1-2.5-5.6-5.6-5.6-.3 0-.6-.3-.6-.6s.3-.6.6-.6c3.7 0 6.8 3.1 6.8 6.8 0 .3-.3.6-.6.6zm-6.2-6.9c-.1 0-.1 0 0 0-.1.1 0 .1 0 .1 3.4 0 6.1 2.7 6.1 6.1 0 .1.1.1.1 0 0-3.4-2.8-6.2-6.2-6.2z"/><path class="st0" d="M13.9 7.7c2.1 0 3.8 1.7 3.8 3.8 0 .2.2.3.3.3s.3-.2.3-.3c0-2.5-2-4.5-4.5-4.5-.2 0-.3.2-.3.3 0 .2.2.4.4.4z"/><path class="st0" d="M18 12.1c-.3 0-.6-.3-.6-.6 0-1.9-1.6-3.5-3.5-3.5-.3 0-.6-.3-.6-.6s.3-.6.6-.6c2.6 0 4.7 2.1 4.7 4.7 0 .3-.3.6-.6.6zm-4.1-4.8c-.1 0-.1 0 0 0-.1.1 0 .1 0 .1 2.2 0 4.1 1.8 4.1 4.1 0 .1.1.1.1 0 0-2.3-1.9-4.2-4.2-4.2z"/><path class="st0" d="M13.9 9.8c.9 0 1.7.8 1.7 1.7 0 .2.2.3.3.3.2 0 .3-.2.3-.3 0-1.3-1.1-2.4-2.4-2.4-.2 0-.3.2-.3.3s.2.4.4.4z"/><path class="st0" d="M15.9 12.1c-.3 0-.6-.3-.6-.6 0-.8-.6-1.4-1.4-1.4-.3 0-.6-.3-.6-.6s.3-.6.6-.6c1.5 0 2.7 1.2 2.7 2.7 0 .2-.3.5-.7.5zm-2-2.8c-.1 0-.1.1 0 0-.1.1 0 .1 0 .1 1.1 0 2 .9 2 2 0 .1.1.1.1 0 0-1.1-1-2.1-2.1-2.1z"/></svg>