<svg id="Livello_1" data-name="Livello 1" xmlns="http://www.w3.org/2000/svg" viewBox="0 0 250 40"><defs><style>.cls-1{fill:#fff;}</style></defs><g id="Spunta"><path class="cls-1" d="M246.79,6a1.36,1.36,0,0,1,.91.31,1.29,1.29,0,0,1,.45.84h-2.73a1.33,1.33,0,0,1,.45-.84,1.38,1.38,0,0,1,.92-.31m2.88,1.66a3,3,0,0,0-.38-1.52,2.5,2.5,0,0,0-1-1,3.14,3.14,0,0,0-1.48-.35,3.07,3.07,0,0,0-1.51.37,2.67,2.67,0,0,0-1.06,1,2.78,2.78,0,0,0-.39,1.47,2.69,2.69,0,0,0,1.51,2.49,3.65,3.65,0,0,0,1.66.36,2.9,2.9,0,0,0,2.29-.89l-.86-.93a2,2,0,0,1-.62.41,2.3,2.3,0,0,1-.77.12A1.83,1.83,0,0,1,246,8.89a1.36,1.36,0,0,1-.54-.82h4.2c0-.27,0-.41,0-.43m-9.29,2.83a3,3,0,0,0,1.53-.37,2.21,2.21,0,0,0,1-1l-1.25-.68a1.33,1.33,0,0,1-1.24.76,1.42,1.42,0,0,1-1.05-.41,1.53,1.53,0,0,1-.41-1.12,1.55,1.55,0,0,1,.41-1.13,1.46,1.46,0,0,1,1.05-.41,1.34,1.34,0,0,1,1.24.76l1.25-.67a2.18,2.18,0,0,0-1-1,3,3,0,0,0-1.53-.37,3.37,3.37,0,0,0-1.6.37,2.69,2.69,0,0,0-1.1,1,2.74,2.74,0,0,0-.4,1.48,2.7,2.7,0,0,0,.4,1.47,2.78,2.78,0,0,0,1.1,1,3.49,3.49,0,0,0,1.6.36m-5.5-6.4a1,1,0,0,0,.72-.26.88.88,0,0,0,.28-.67.79.79,0,0,0-.28-.62,1.07,1.07,0,0,0-.72-.25,1,1,0,0,0-.72.26.83.83,0,0,0-.28.64.81.81,0,0,0,.28.64,1,1,0,0,0,.72.26m-.81,6.32h1.61V4.84h-1.61Zm-2.72-5.55-1.59,3.78-1.53-3.78h-1.66l2.33,5.55h1.66l2.34-5.55Zm-7.54.73V4.84h-1.54v5.55h1.61V7.77a1.54,1.54,0,0,1,.4-1.16,1.46,1.46,0,0,1,1.08-.39l.36,0V4.76a2.85,2.85,0,0,0-1.13.21,1.75,1.75,0,0,0-.78.6m-6,.41a1.36,1.36,0,0,1,.91.31,1.39,1.39,0,0,1,.45.84h-2.73a1.25,1.25,0,0,1,.45-.84,1.37,1.37,0,0,1,.92-.31m2.88,1.66a3,3,0,0,0-.38-1.52,2.53,2.53,0,0,0-1-1,3.13,3.13,0,0,0-1.47-.35,3,3,0,0,0-1.51.37,2.69,2.69,0,0,0-1.07,1,2.87,2.87,0,0,0-.38,1.47,2.78,2.78,0,0,0,.39,1.47,2.74,2.74,0,0,0,1.11,1,3.68,3.68,0,0,0,1.66.36,2.89,2.89,0,0,0,2.29-.89l-.85-.93a2,2,0,0,1-.63.41,2.24,2.24,0,0,1-.76.12A1.86,1.86,0,0,1,217,8.89a1.31,1.31,0,0,1-.53-.82h4.19c0-.27,0-.41,0-.43m-9.57,2.83a3.94,3.94,0,0,0,1.41-.22,1.91,1.91,0,0,0,.9-.62,1.46,1.46,0,0,0,.31-.92,1.3,1.3,0,0,0-.32-1,1.65,1.65,0,0,0-.75-.47q-.43-.12-1.11-.24a4.65,4.65,0,0,1-.89-.2.37.37,0,0,1-.28-.36.43.43,0,0,1,.26-.37,1.58,1.58,0,0,1,.77-.14,3.15,3.15,0,0,1,1.6.41l.54-1.15a3.23,3.23,0,0,0-1-.35,5.06,5.06,0,0,0-1.17-.13,3.74,3.74,0,0,0-1.37.23,1.94,1.94,0,0,0-.89.63,1.53,1.53,0,0,0-.31.93,1.33,1.33,0,0,0,.33,1A1.73,1.73,0,0,0,210,8a8.17,8.17,0,0,0,1.12.24,3.67,3.67,0,0,1,.86.17.36.36,0,0,1,.28.34q0,.51-1,.51a3.84,3.84,0,0,1-1-.15,3.18,3.18,0,0,1-.89-.39l-.54,1.16a3.47,3.47,0,0,0,1.05.42,5.1,5.1,0,0,0,1.35.17"/><path class="cls-1" d="M16.06,31.8A7,7,0,0,1,11,33.9a7.17,7.17,0,0,1-7.18-7.18,7,7,0,0,1,2.1-5.08A7,7,0,0,1,11,19.55a6.94,6.94,0,0,1,5.07,2.09,6.91,6.91,0,0,1,2.1,5.08,7,7,0,0,1-2.1,5.08m2.1-13.41A10.57,10.57,0,0,0,11,15.72a10.62,10.62,0,0,0-7.76,3.22,11,11,0,0,0,0,15.54A10.63,10.63,0,0,0,11,37.71,10.53,10.53,0,0,0,18.16,35v2.68H22v-22H18.16Z"/><path class="cls-1" d="M48.71,26.72a7.18,7.18,0,1,1-14.35,0v-11H30.53v11a11,11,0,0,0,11,11A10.5,10.5,0,0,0,48.71,35v2.32h3.83V15.72H48.71Z"/><path class="cls-1" d="M134,15.72a8.38,8.38,0,0,0-6.81,3.3,8.36,8.36,0,0,0-6.82-3.3,8.16,8.16,0,0,0-4.9,1.54V15.72h-3.83v22h3.83V24.45a4.9,4.9,0,0,1,4.9-4.9,5,5,0,0,1,4.91,4.9V37.71h3.81V24.45a4.9,4.9,0,0,1,4.91-4.9,5,5,0,0,1,4.9,4.9V37.71h3.83V24.45A8.74,8.74,0,0,0,134,15.72"/><path class="cls-1" d="M167.32,31.8a7.18,7.18,0,0,1-12.26-5.08,7.18,7.18,0,1,1,12.26,5.08m2.09-13.41a11,11,0,0,0-14.93.55,11,11,0,0,0,0,15.54,10.63,10.63,0,0,0,7.76,3.23A10.5,10.5,0,0,0,169.41,35v2.68h3.83v-22h-3.83Z"/><path class="cls-1" d="M185.6,18.39V15.72h-3.82v22h3.82v-11a7.17,7.17,0,0,1,7.17-7.17h.4V15.72h-.4a10.54,10.54,0,0,0-7.17,2.67"/><path class="cls-1" d="M210.81,19.55a6.89,6.89,0,0,1,5.69,2.86l.12.15H221L220.7,22c-2.23-4.15-5.55-6.25-9.89-6.25a11,11,0,0,0-11,11,11,11,0,0,0,11,11c4.34,0,7.66-2.11,9.89-6.26l.31-.59h-4.39l-.12.16a6.81,6.81,0,0,1-5.69,2.88,7.18,7.18,0,0,1-5.08-12.26,7,7,0,0,1,5.08-2.09"/><path class="cls-1" d="M244.07,31.8a7.18,7.18,0,0,1-10.15,0,7,7,0,0,1-2.1-5.08,7.18,7.18,0,1,1,14.35,0,7,7,0,0,1-2.1,5.08m2.1-16.08v2.67a11,11,0,0,0-14.93.55A10.62,10.62,0,0,0,228,26.72a11,11,0,0,0,11,11A10.53,10.53,0,0,0,246.17,35v2.68H250v-22Z"/><path class="cls-1" d="M67.93,15.72V9.61H64.12v6.11h-3v3.83h3V30.16a7.56,7.56,0,0,0,7.55,7.55H75.5V33.9H71.67a3.72,3.72,0,0,1-3.74-3.74V19.55H75.5V15.72H67.93Z"/><path class="cls-1" d="M97.57,31.8a7.17,7.17,0,0,1-12.23-5.08,7.17,7.17,0,1,1,14.33,0,7,7,0,0,1-2.1,5.08M92.51,15.72a11,11,0,0,0-11,11,11,11,0,0,0,22,0,11,11,0,0,0-11-11"/><path class="cls-1" d="M100.81,15A13.49,13.49,0,0,0,84.2,15l-2-2.45a16.66,16.66,0,0,1,20.69,0Z"/><path class="cls-1" d="M95.68,26.71a3.18,3.18,0,1,1-3.18-3.17,3.18,3.18,0,0,1,3.18,3.17"/></g></svg>