<svg id="Livello_1" data-name="Livello 1" xmlns="http://www.w3.org/2000/svg" viewBox="0 0 20 20"><defs><style>.cls-1{fill:#fff;}</style></defs><g id="Spunta"><g id="Raggruppa_759" data-name="Raggruppa 759"><g id="Raggruppa_758" data-name="Raggruppa 758"><g id="Raggruppa_757" data-name="Raggruppa 757"><g id="Raggruppa_756" data-name="Raggruppa 756"><path id="Tracciato_201" data-name="Tracciato 201" class="cls-1" d="M10,16a6,6,0,1,0-6-6H4A6,6,0,0,0,10,16ZM5.48,10A4.52,4.52,0,1,1,10,14.52h0A4.52,4.52,0,0,1,5.48,10Z"/></g><path id="Tracciato_202" data-name="Tracciato 202" class="cls-1" d="M16,19.91H4.05a4.06,4.06,0,0,1-4-4.05V4.14a4.06,4.06,0,0,1,4.05-4H16A4.06,4.06,0,0,1,20,4.14V15.86A4.07,4.07,0,0,1,16,19.91ZM4.05,1.56A2.58,2.58,0,0,0,1.48,4.14V15.85a2.58,2.58,0,0,0,2.57,2.58H16a2.58,2.58,0,0,0,2.57-2.58V4.14A2.57,2.57,0,0,0,16,1.57Z"/></g><path id="Tracciato_203" data-name="Tracciato 203" class="cls-1" d="M16.05,3.36A.94.94,0,1,0,17,4.3h0A.94.94,0,0,0,16.05,3.36Z"/></g></g></g></svg>