<?xml version="1.0" encoding="utf-8"?>
<!-- Generator: Adobe Illustrator 25.2.3, SVG Export Plug-In . SVG Version: 6.00 Build 0)  -->
<svg version="1.1" id="Livello_1" xmlns="http://www.w3.org/2000/svg" xmlns:xlink="http://www.w3.org/1999/xlink" x="0px" y="0px"
	 viewBox="0 0 300 50" style="enable-background:new 0 0 300 50;" xml:space="preserve">
<style type="text/css">
	.st0{fill:#FFFFFF;}
</style>
<g>
	<path class="st0" d="M19.3,35.2c-1.7,1.7-3.7,2.5-6.1,2.5s-4.4-0.8-6.1-2.5c-1.7-1.7-2.5-3.7-2.5-6.1c0-2.4,0.8-4.4,2.5-6.1
		c1.7-1.7,3.7-2.5,6.1-2.5c2.4,0,4.4,0.8,6.1,2.5c1.6,1.7,2.5,3.7,2.5,6.1C21.8,31.4,21,33.5,19.3,35.2 M21.8,19.1
		c-2.4-2.1-5.3-3.2-8.6-3.2c-3.6,0-6.8,1.3-9.3,3.9C1.3,22.3,0,25.5,0,29.1s1.3,6.8,3.9,9.3c2.5,2.5,5.7,3.9,9.3,3.9
		c3.3,0,6.2-1.1,8.6-3.2v3.2h4.6V15.8h-4.6V19.1z"/>
	<path class="st0" d="M58.5,29c0,2.3-0.8,4.4-2.5,6.1c-1.7,1.7-3.7,2.5-6.1,2.5c-2.3,0-4.4-0.8-6.1-2.5c-1.7-1.7-2.5-3.7-2.5-6.1
		V15.8h-4.6V29c0,3.6,1.3,6.8,3.9,9.3c2.5,2.5,5.7,3.9,9.3,3.9c3.3,0,6.2-1.1,8.6-3.2v2.8h4.6v-26h-4.6V29z"/>
	<path class="st0" d="M117.1,35.2c-1.7,1.7-3.7,2.5-6.1,2.5c-2.4,0-4.4-0.8-6.1-2.5c-1.7-1.7-2.5-3.7-2.5-6.1c0-2.4,0.8-4.4,2.5-6.1
		c1.7-1.6,3.7-2.5,6.1-2.5c2.3,0,4.4,0.8,6.1,2.5c1.7,1.7,2.5,3.7,2.5,6.1S118.8,33.5,117.1,35.2 M111.1,15.8
		c-3.6,0-6.8,1.3-9.3,3.9c-2.5,2.5-3.9,5.7-3.9,9.3s1.3,6.8,3.9,9.3c2.5,2.5,5.7,3.9,9.3,3.9c3.6,0,6.8-1.3,9.3-3.9
		c2.5-2.5,3.9-5.7,3.9-9.3s-1.3-6.8-3.9-9.3S114.7,15.8,111.1,15.8"/>
	<path class="st0" d="M121,15c-2.8-2.3-6.1-3.5-9.9-3.5c-3.9,0-7.3,1.1-9.9,3.5l-2.5-3c3.5-2.9,7.6-4.3,12.4-4.3s9,1.5,12.4,4.3
		L121,15z"/>
	<path class="st0" d="M160.8,15.8c-3.3,0-6.1,1.3-8.2,4c-2.1-2.6-4.9-4-8.2-4c-2.2,0-4.2,0.6-5.9,1.8v-1.8H134v26.4h4.6V26.3
		c0-1.6,0.6-3,1.7-4.2c1.2-1.2,2.5-1.8,4.2-1.8s3,0.6,4.2,1.8c1.2,1.1,1.8,2.5,1.8,4.2v15.9h4.6V26.3c0-1.6,0.6-3,1.7-4.2
		c1.2-1.2,2.5-1.8,4.2-1.8c1.6,0,3,0.6,4.2,1.8c1.2,1.1,1.8,2.5,1.8,4.2v15.9h4.6V26.3c0-2.9-1.1-5.4-3.1-7.4
		C166.2,16.9,163.7,15.8,160.8,15.8"/>
	<path class="st0" d="M200.8,35.2c-1.7,1.7-3.7,2.5-6.1,2.5c-2.3,0-4.4-0.8-6.1-2.5c-1.7-1.7-2.5-3.7-2.5-6.1c0-2.4,0.8-4.4,2.5-6.1
		c1.7-1.7,3.7-2.5,6.1-2.5c2.4,0,4.4,0.8,6.1,2.5c1.7,1.7,2.5,3.7,2.5,6.1S202.5,33.5,200.8,35.2 M203.3,19.1
		c-2.4-2.1-5.3-3.2-8.6-3.2c-3.6,0-6.8,1.3-9.3,3.9c-2.5,2.5-3.9,5.7-3.9,9.3s1.3,6.8,3.9,9.3c2.5,2.5,5.7,3.9,9.3,3.9
		c3.3,0,6.2-1.1,8.6-3.2v3.2h4.6V15.8h-4.6V19.1z"/>
	<path class="st0" d="M222.7,19.1v-3.2h-4.6v26.4h4.6V29c0-2.3,0.8-4.4,2.5-6.1c1.7-1.7,3.7-2.5,6.1-2.5h0.5v-4.6h-0.5
		C228,15.8,225.1,17,222.7,19.1"/>
	<path class="st0" d="M253,20.4c2.8,0,5.1,1.1,6.8,3.5l0.1,0.2h5.3l-0.4-0.7c-2.7-5-6.6-7.5-11.9-7.5c-3.6,0-6.8,1.3-9.3,3.9
		c-2.5,2.5-3.9,5.7-3.9,9.3s1.3,6.8,3.9,9.3c2.5,2.5,5.7,3.9,9.3,3.9c5.2,0,9.2-2.5,11.9-7.5l0.4-0.7H260l-0.1,0.2
		c-1.8,2.3-4,3.5-6.8,3.5c-2.3,0-4.4-0.8-6.1-2.5c-1.7-1.7-2.5-3.7-2.5-6.1c0-2.4,0.8-4.4,2.5-6.1C248.6,21.3,250.6,20.4,253,20.4"
		/>
	<path class="st0" d="M292.9,35.2c-1.7,1.7-3.7,2.5-6.1,2.5s-4.4-0.8-6.1-2.5c-1.7-1.7-2.5-3.7-2.5-6.1c0-2.4,0.8-4.4,2.5-6.1
		c1.7-1.7,3.7-2.5,6.1-2.5c2.4,0,4.4,0.8,6.1,2.5c1.7,1.7,2.5,3.7,2.5,6.1C295.4,31.4,294.6,33.5,292.9,35.2 M295.4,15.8V19
		c-2.4-2.1-5.3-3.2-8.6-3.2c-3.6,0-6.8,1.3-9.3,3.9c-2.5,2.5-3.9,5.7-3.9,9.3s1.3,6.8,3.9,9.3c2.5,2.5,5.7,3.9,9.3,3.9
		c3.3,0,6.2-1.1,8.6-3.2v3.2h4.6V15.8H295.4z"/>
	<path class="st0" d="M81.6,15.8V8.5H77v7.3h-3.7v4.6H77v12.7c0,2.5,0.9,4.7,2.7,6.4c1.8,1.8,4,2.7,6.4,2.7h4.6v-4.6h-4.6
		c-1.3,0-2.3-0.4-3.2-1.3c-0.8-0.9-1.3-2-1.3-3.2V20.5h5.5h3.6v-4.6h-3.6L81.6,15.8L81.6,15.8z"/>
	<path class="st0" d="M114.9,29c0,2.1-1.7,3.8-3.8,3.8c-2.1,0-3.8-1.7-3.8-3.8s1.7-3.8,3.8-3.8C113.1,25.2,114.9,26.9,114.9,29"/>
</g>
</svg>
