<svg id="Livello_1" data-name="Livello 1" xmlns="http://www.w3.org/2000/svg" viewBox="0 0 20 20"><defs><style>.cls-1{fill:#fff;}</style></defs><g id="Spunta"><g id="Raggruppa_750" data-name="Raggruppa 750"><g id="Raggruppa_749" data-name="Raggruppa 749"><g id="Raggruppa_748" data-name="Raggruppa 748"><path id="Tracciato_195" data-name="Tracciato 195" class="cls-1" d="M20,9.49A9.8,9.8,0,0,0,.41,9.31c0,.14,0,.28,0,.43a9.62,9.62,0,0,0,1.33,4.9.11.11,0,0,1,0,.11L0,19.88a.08.08,0,0,0,0,.11.06.06,0,0,0,.06,0L5.46,18.3a.13.13,0,0,1,.12,0,9.91,9.91,0,0,0,4.62,1.15A9.78,9.78,0,0,0,20,9.73C20,9.67,20,9.49,20,9.49ZM3.58,14.12A7.79,7.79,0,0,1,2.24,9.74a6.62,6.62,0,0,1,0-.77,8,8,0,0,1,15.84.15c0,.24,0,.43,0,.61A8,8,0,0,1,6.83,16.89c-.29-.14-.84-.47-1-.57a.11.11,0,0,0-.11,0L3,17.16a.08.08,0,0,1-.1-.05v-.05l.87-2.56a.14.14,0,0,0,0-.13c0-.08-.14-.2-.18-.25Z"/></g><path id="Tracciato_196" data-name="Tracciato 196" class="cls-1" d="M14.85,11.9a2.15,2.15,0,0,0-.48-.3c-.17-.08-1.39-.69-1.62-.77s-.43-.15-.63.15-.59.74-.74.91-.19.16-.42,0a7.71,7.71,0,0,1-1.88-1.15,6.71,6.71,0,0,1-1.3-1.6c-.11-.17,0-.26.09-.38s.42-.5.46-.54S8.48,8,8.48,8a.53.53,0,0,0,0-.49c0-.07-.67-1.59-.73-1.73-.18-.43-.37-.45-.55-.44s-.92,0-1.19.3l0,0a2.69,2.69,0,0,0-.8,2,3.34,3.34,0,0,0,.13.82,5.28,5.28,0,0,0,.85,1.65s.62.86.93,1.21a8.37,8.37,0,0,0,3.15,2.36,7.31,7.31,0,0,0,2.34.67l.53-.08a2.5,2.5,0,0,0,1.66-1.17A1.94,1.94,0,0,0,14.85,11.9Z"/></g></g></g></svg>