<svg version="1.1" id="Livello_1" xmlns="http://www.w3.org/2000/svg" x="0" y="0" viewBox="0 0 25 25" xml:space="preserve"><style>.st0{fill:#0b1a28}</style><path class="st0" d="M10.4 11.2h1.7v.8h-1.7z"/><path class="st0" d="M24.2 11.2h-1.3v.8h1.3v1.7c0 .3-.2.6-.5.7l-1.2.6v-.8s0-.1-.1-.1c0 0 0-.1-.1-.1 0 0 0-.1-.1-.1 0 0 0-.1-.1-.1 0 0 0-.1-.1-.1 0 0 0-.1-.1-.1l-.1-.1-.1-.1-.1-.1-.1-.1s-.1 0-.1-.1c0 0-.1 0-.1-.1 0 0-.1 0-.1-.1 0 0-.1 0-.1-.1 0 0-.1 0-.1-.1h-1.1c-1.4 0-2.5 1.1-2.5 2.5h-3.3V11h4.6c.1 0 .2 0 .3-.1l1.1-1.1c.5.2.9.5 1.3.7 0 0 .1.1.2.1l2.6.4v.2zm-2.6 4.1c-.2.9-1.1 1.5-2 1.3-.9-.2-1.5-1.1-1.3-2 .2-.9 1.1-1.5 2-1.3.8.2 1.3.8 1.3 1.6.1.2.1.3 0 .4zm-7.4-7h.2c1.7 0 3.3.3 4.9.9l-.7.8h-4.4V8.3zm-.9 1.7H7.5h.1c1.8-1 3.8-1.5 5.8-1.6V10zm0 5H6.7c0-1.4-1.1-2.5-2.5-2.5S1.7 13.6 1.7 15H.8v-2.1c0-.4.2-.7.5-.9 1.4-.8 2.9-1.2 4.5-1.2h7.5V15zm-7.5.3c-.2.9-1.1 1.5-2 1.3-.9-.2-1.5-1.1-1.3-2 .2-.9 1.1-1.5 2-1.3.8.2 1.3.8 1.3 1.6v.4zM24.6 10l-2.8-.4c-.5-.3-1.1-.6-1.6-.8-1.8-.8-3.8-1.3-5.8-1.3h-.5c-2.4 0-4.7.6-6.8 1.7l-1.4.8c-1.7 0-3.3.5-4.7 1.3-.6.3-1 1-1 1.6v2.5c0 .2.2.4.4.4h1.4c.5 1.3 1.9 2 3.2 1.5.7-.3 1.3-.8 1.5-1.5h11.1c.5 1.3 1.9 2 3.2 1.5.7-.3 1.3-.8 1.5-1.5h.3l1.3-.5c.6-.2 1-.8 1-1.5v-3.4c.1-.2-.1-.4-.3-.4z"/></svg>