<svg version="1.1" id="Livello_1" xmlns="http://www.w3.org/2000/svg" x="0" y="0" viewBox="0 0 25 25" xml:space="preserve"><style>.st0{fill:#0b1a28}</style><path class="st0" d="M25 19H0V6h25v13zM1 18h23V7H1v11z"/><path class="st0" d="M12.5 15.3c-1.6 0-2.8-1.3-2.8-2.8 0-1.5 1.3-2.8 2.8-2.8 1.6 0 2.8 1.3 2.8 2.8s-1.2 2.8-2.8 2.8zm0-4.6c-1 0-1.8.8-1.8 1.8s.8 1.8 1.8 1.8 1.8-.8 1.8-1.8-.8-1.8-1.8-1.8z"/><path class="st0" d="M21.3 17.2H3.7l-.1-.4c-.1-.8-.6-1.3-1.4-1.5l-.4-.1V9.7l.4-.1C3 9.5 3.5 9 3.7 8.2l.1-.4h17.5l.1.4c.1.8.6 1.3 1.4 1.5l.4.1v5.5l-.4.1c-.7.1-1.3.7-1.4 1.4l-.1.4zM4.5 16.1h15.9c.3-.8.9-1.4 1.7-1.7v-3.9c-.8-.3-1.4-.9-1.7-1.7H4.5c-.3.8-.9 1.4-1.7 1.7v3.9c.8.4 1.4 1 1.7 1.7z"/></svg>