<svg xmlns="http://www.w3.org/2000/svg" viewBox="0 0 25 25"><path d="M12.9 15h-.1l-5.7-5 5 5.7v.1c0 .4.4.8.8.8s.8-.4.8-.8c-.1-.5-.4-.8-.8-.8zm-.4-13.5C5.7 1.5.2 7 .2 13.8c0 3.9 1.8 7.4 4.7 9.7h1.2C3 21.4.9 17.9.9 13.8.9 7.4 6.1 2.2 12.5 2.2c6.4 0 11.6 5.2 11.6 11.6 0 4-2.1 7.6-5.2 9.7h1.2c2.9-2.3 4.7-5.8 4.7-9.7 0-6.8-5.5-12.3-12.3-12.3zm5.1 6.3l.2.1 1.9-2.3-.7-.4-1.9 2.3.5.3zm-2.1-3.7l-.8 2.1.5.2.3.1 1-2.8-.8-.3-.2.7zM6 5.1l-.6.6.7.8 1.2 1.4.4-.3.3-.2-2-2.3zM23 15l-2.9-.5v.2l-.1.6 2.9.5.1-.8zM3.1 8.6l2.5 1.5.4-.7.1-.1-2.6-1.4-.4.7zm14 11.1L19 22l.6-.5-1.9-2.3-.4.4-.2.1zm-13.6-.5L6 17.7l-.3-.6-.1-.1-2.5 1.5.4.7zm6-12.7l.7-.2h.1l-1-2.8-.8.2.1.4.9 2.4zm13.4 4.8l-.8.1-2.1.4.1.6v.2l2.9-.5-.1-.8zM2 12.1l1 .2 1.9.3.1-.7v-.1l-2.9-.5-.1.8zm19.5 7.1l.4-.7-.9-.5-1.7-1-.2.4-.2.3 2.6 1.5zm-13.9.2l-.3-.3-1.9 2.3.6.5.8-1 1.1-1.3-.3-.2zM20.4 8.5l-1.5.9.2.4.2.3 2.5-1.5-.4-.7-1 .6zM2.1 15.8l2.1-.4.8-.1-.1-.4-.1-.4L2 15l.1.8zm10-9.9v-3h.8v2.9h-.8z" fill="#0b2133"/></svg>