<svg version="1.1" id="Livello_1" xmlns="http://www.w3.org/2000/svg" x="0" y="0" viewBox="0 0 25 25" xml:space="preserve"><style>.st0{fill:#0b2133}</style><path class="st0" d="M14.5 16.8l.3.7-3.7 1.1c-.1 0-.1 0-.2.1 0-.1-.1-.1-.1-.2v-.3c.1-.2.2-.2.5-.4h.1l2.2-1 .4-.2c.2-.1.4 0 .5.2zm1.9 1.4c.2.2.3.4.2.6 0 .2-.1.3-.2.4l-5.1 1.1c-.2 0-.4 0-.5-.2-.1-.1-.1-.3 0-.5s.2-.2.6-.3l3.7-1.1c.5-.2.9-.3 1.3 0zm2 2.1c.2.3.3.7.1 1l-7.8.9c-.1-.1-.2-.3-.2-.4 0-.2.2-.5.4-.5l.6-.1 5.2-1.1c.1 0 .2 0 .3-.1h.1c.7-.2 1.1-.1 1.3.3zm1.8 1.6c.2.1.5.2.6.4.2.2.2.5.2.8 0 .2-.2.4-.3.4h-10c-.1 0-.2-.1-.3-.2-.1-.1-.1-.2 0-.3 0-.1.1-.1.2-.1l8.4-1c.1 0 .2 0 .4-.1.3.1.6.1.8.1zM8.8 8.9l.7-.3 3.4 7.6-1.5.6-3.3-7.6.7-.3zm-1.9-.5l-.4-.7 2.9-1.3.3.7v.3c0 .1-.1.2-.2.2l-2.2 1H7s-.1-.1-.1-.2zM4.2 5.3c-.4-.7-.3-1.6 0-2.3.3-.7 1-1.3 1.7-1.5.3-.1.5-.1.8-.1 1 0 1.9.5 2.4 1.3.4.7.5 1.5.3 2.3-.1.2-.1.4-.1.6L6.1 7l-.6-.3c-.6-.3-1.1-.8-1.3-1.4zm5.6-3C9 1 7.4.3 5.9.7 4.5 1 3.3 2.2 3.2 3.8c-.2 1.5.7 3 2 3.6.3.1.5.3.6.6l.4.8c.2.4.6.7 1.1.7h.1l3.4 7.7c-.3.1-.5.4-.6.7-.1.3-.1.6 0 .8 0 .1.1.3.2.4-.1.1-.1.2-.2.3-.2.4-.2 1 .1 1.3-.4.2-.6.7-.5 1.1 0 .3.1.5.2.8-.1.1-.1.1-.1.2-.2.3-.2.8 0 1.1.2.4.6.6 1 .6h10c.7 0 1.1-.7 1.1-1.2s-.1-.9-.4-1.3c-.3-.4-.7-.6-1.1-.8-.3-.1-.6 0-.9 0 .1-.5-.1-1-.4-1.4-.4-.5-1.1-.8-1.7-.7v-.2c0-.5-.2-.9-.5-1.2-.4-.3-.9-.5-1.4-.4v-.1l-.3-.7c-.3-.6-1-.9-1.6-.6l-3.4-7.7c.4-.3.5-.9.3-1.3l-.5-.9c-.1-.2-.1-.5 0-.8.3-.9.2-2-.3-2.9z"/><path class="st0" d="M6.5 2.7c0-.2-.2-.4-.4-.4-.3 0-.5.1-.8.3-.6.3-.8.9-.8 1.5 0 .2.2.4.4.4.1 0 .2-.1.3-.1.1-.1.1-.3.1-.4 0-.2 0-.5.2-.6.1-.2.4-.3.6-.3.2 0 .4-.2.4-.4z"/></svg>