<svg version="1.1" id="Livello_1" xmlns="http://www.w3.org/2000/svg" x="0" y="0" viewBox="0 0 25 25" xml:space="preserve"><style>.st0{fill:#fff}</style><path class="st0" d="M12.5 23c-1.3 0-2.5-.2-3.7-.7-.1 0-.2-.1-.3 0l-5.5 1L4.4 20c.1-.2.1-.5-.1-.7-.8-.9-1.4-1.9-1.8-3-.5-1.3-.7-2.7-.7-4 0-5.9 4.8-10.8 10.8-10.8 5.9 0 10.7 4.8 10.7 10.7 0 6-4.9 10.8-10.8 10.8zM12.6.2c-.1 0-.1 0 0 0C5.9.2.4 5.6.4 12.3c0 2.7.9 5.4 2.6 7.5l-1.8 4.1c-.1.3 0 .7.3.9.1.1.3.1.4 0l6.4-1.1c1.3.5 2.6.7 4 .7 6.7 0 12.1-5.4 12.1-12.1C24.6 5.6 19.2.2 12.6.2z"/><path class="st0" d="M12 9.9H8.4c-.4 0-.7.3-.7.7s.3.7.7.7H12c.4 0 .7-.3.7-.7s-.4-.7-.7-.7zm4.6 3.3H8.4c-.4 0-.7.3-.7.7 0 .4.3.7.7.7h8.2c.4 0 .7-.3.7-.7-.1-.4-.4-.7-.7-.7z"/></svg>