<svg version="1.1" id="Livello_1" xmlns="http://www.w3.org/2000/svg" x="0" y="0" viewBox="0 0 25 25" xml:space="preserve"><style>.st0{fill:#0b1a28}</style><path class="st0" d="M13.3 4.8H6.6c-.2 0-.3-.1-.3-.3 0-.2.1-.3.3-.3h6.7c.2 0 .3.1.3.3 0 .2-.1.3-.3.3z"/><path class="st0" d="M13.3 5.1H6.6c-.3 0-.6-.3-.6-.6s.3-.6.6-.6h6.7c.3 0 .6.3.6.6s-.3.6-.6.6zm-6.7-.7s-.1 0 0 0c-.1.1 0 .1 0 .1h6.7s.1 0 .1-.1c0 0 0-.1-.1-.1H6.6zM13.3 7H6.6c-.2 0-.3-.2-.3-.3s.1-.3.3-.3h6.7c.2 0 .3.1.3.3s-.1.3-.3.3z"/><path class="st0" d="M13.3 7.3H6.6c-.3 0-.6-.3-.6-.6s.3-.6.6-.6h6.7c.3 0 .6.3.6.6s-.3.6-.6.6zm-6.7-.7s-.1 0 0 0c-.1.1 0 .1 0 .1h6.7s.1 0 .1-.1c0 0 0-.1-.1-.1H6.6z"/><path class="st0" d="M20.6 23.2h-15c-.5 0-.8-.4-.8-.8V2.7c0-.5.4-.8.8-.8h10.7v4c0 .7.5 1.2 1.2 1.2h4v15.4c0 .3-.4.7-.9.7zM17 2.3l4 4h-3.5c-.3 0-.6-.2-.6-.6V2.3zm5 4.1l-5.2-5.2c-.1-.1-.1-.1-.2-.1h-11c-.8 0-1.5.7-1.5 1.5v19.7c0 .8.7 1.5 1.5 1.5h15c.8 0 1.5-.7 1.5-1.5V6.7c0-.1 0-.2-.1-.3z"/><path class="st0" d="M20.6 24.1h-15c-1 0-1.8-.8-1.8-1.8V2.7c0-1 .8-1.8 1.8-1.8h11c.2 0 .3.1.4.2l5.2 5.2c.1.1.2.3.2.4v15.7c0 .9-.8 1.7-1.8 1.7zM5.6 1.4c-.6 0-1.2.6-1.2 1.3v19.7c0 .7.6 1.2 1.2 1.2h15c.7 0 1.2-.6 1.2-1.2V6.7l-5.2-5.2-11-.1zm15 22.1h-15c-.6 0-1.1-.5-1.1-1.1V2.7c0-.7.5-1.2 1.1-1.2h10.9v4.2c0 .5.4.9.9.9h4.2v15.6c.2.8-.3 1.3-1 1.3zM5.6 2.1c-.3 0-.6.3-.6.6v19.7c0 .3.3.6.6.6h15c.3 0 .6-.3.6-.6V7.3h-3.7c-.8 0-1.5-.7-1.5-1.5V2.1H5.6zm16.1 4.5h-4.2c-.5 0-.8-.4-.8-.8V1.6l5 5zm-4.5-3.7v2.8c0 .2.1.3.3.3h2.8l-3.1-3.1z"/></svg>