<svg data-name="Livello 1" xmlns="http://www.w3.org/2000/svg" viewBox="0 0 35 35"><path d="M32.51 4h-2.7v-.35a1.92 1.92 0 10-3.84 0V4H9v-.35a1.92 1.92 0 10-3.84 0V4H2.49A2.5 2.5 0 000 6.54v24.23a2.5 2.5 0 002.49 2.5h24.82a.77.77 0 000-1.53H2.49a1 1 0 01-1-1v-19.4h31.98v19.43a1 1 0 01-1 1h-2.28a.76.76 0 00-.76.76.77.77 0 00.22.54.74.74 0 00.54.23h2.32A2.5 2.5 0 0035 30.77V6.54A2.5 2.5 0 0032.51 4zM7.11 8.46A1.93 1.93 0 009 6.54v-1h17v1a1.92 1.92 0 103.84 0v-1h2.7a1 1 0 011 1v3.27H1.53V6.54a1 1 0 011-1h2.7v1a1.93 1.93 0 001.88 1.92zm21.16-1.92a.39.39 0 11-.77 0V3.65a.39.39 0 11.77 0zm-21.54 0V3.65a.39.39 0 11.77 0v2.89a.39.39 0 11-.77 0z" fill="#0b1a28" opacity=".4"/><text transform="translate(8.98 26.96)" font-size="16.8" font-family="Montserrat-Medium,Montserrat" font-weight="500" fill="#0b1a28" opacity=".4">18</text></svg>