<svg id="Livello_1" data-name="Livello 1" xmlns="http://www.w3.org/2000/svg" viewBox="0 0 35 35"><defs><style>.cls-1,.cls-5{opacity:.4}.cls-1{font-size:12.14px;font-family:Montserrat-Bold,Montserrat;font-weight:700;letter-spacing:-.01em}.cls-1,.cls-6{fill:#0b1a28}.cls-2{letter-spacing:.02em}.cls-3{letter-spacing:.01em}.cls-4{letter-spacing:0}</style></defs><text class="cls-1" transform="translate(6.93 21.64)">2<tspan class="cls-2" x="7.04" y="0">4</tspan><tspan class="cls-3" x="15.7" y="0">/</tspan><tspan class="cls-4" x="20.54" y="0">7</tspan></text><g class="cls-5"><path class="cls-6" d="M16 33.48a16 16 0 1 1 9.05-29.12.86.86 0 0 1 .22 1.2.85.85 0 0 1-1.2.22A14.24 14.24 0 1 0 28 25.18a.87.87 0 1 1 1.46.94A15.92 15.92 0 0 1 16 33.48z"/><path class="cls-6" d="M20.93 7.24l7.57 1.81-2.22-7.46-5.35 5.65z"/></g></svg>