<svg id="Livello_1" data-name="Livello 1" xmlns="http://www.w3.org/2000/svg" viewBox="0 0 20 20"><defs><style>.cls-1{opacity:.4;isolation:isolate}</style></defs><path id="Tracciato_193" data-name="Tracciato 193" class="cls-1" d="M9.66 4.63V2.24h.67v2.39zm-8.08 8l1.68-.3.67-.12-.06-.33-.06-.33-2.34.45zm14.83-5.9l-1.2.69.18.33.15.26 2.06-1.2-.33-.58zM6 15.61l-.27-.22-1.53 1.82.52.43.67-.79.86-1zm11.26-.17l.34-.58-.72-.41-1.35-.78-.18.32-.15.26zM1.47 9.67l.84.15 1.51.27.1-.57v-.1L1.59 9zM18.4 9l-.63.11-1.71.3.08.49v.17l2.35-.42zM7.56 5.12l.54-.2h.09l-.82-2.28-.63.23.12.32.7 1.92zm-4.85 10.3l2.06-1.19-.26-.45-.07-.13-2.06 1.19.33.58zm11 .4l1.54 1.83.51-.43-1.53-1.83-.36.3-.16.13zm-11.34-9L4.45 8l.29-.5v-.08L2.72 6.24zM18.52 12l-2.35-.42v.14l-.09.52 2.34.41zM4.73 4l-.51.43.56.67 1 1.16.27-.26.21-.17zm7.7-.84l-.62 1.69.42.15.21.08.82-2.24-.63-.23zm1.69 3l.13.11 1.53-1.82-.51-.45-1.53 1.87zM10 1.08a10 10 0 0 0-6.19 17.84h1a9.41 9.41 0 1 1 10.36 0h1A10 10 0 0 0 10 1.08zM10.29 12h-.12L5.59 8l4.08 4.58a.17.17 0 0 0 0 .07.63.63 0 0 0 .63.64.64.64 0 0 0 .64-.64.63.63 0 0 0-.64-.63z"/></svg>