<svg id="Livello_1" data-name="Livello 1" xmlns="http://www.w3.org/2000/svg" viewBox="0 0 20 20"><defs><style>.cls-1{fill:#0b1a28;opacity:.4;isolation:isolate}</style></defs><path id="Tracciato_207" data-name="Tracciato 207" class="cls-1" d="M7.71 1.45a3 3 0 0 0-5.14 3.1 3 3 0 0 0 1.31 1.17 1 1 0 0 1 .48.47l.3.66a1 1 0 0 0 .92.6h.07l2.87 6.47a1 1 0 0 0-.54.56 1.23 1.23 0 0 0 0 .71 1.83 1.83 0 0 0 .14.32 1.14 1.14 0 0 0-.15.23 1 1 0 0 0 .1 1.12 1.05 1.05 0 0 0-.44.91 1.31 1.31 0 0 0 .21.64.76.76 0 0 0-.11.14.92.92 0 0 0 .28 1.28 1 1 0 0 0 .5.14h8.39a1 1 0 0 0 .91-1 1.65 1.65 0 0 0-.31-1.1 1.58 1.58 0 0 0-.92-.64 2.32 2.32 0 0 0-.79 0 1.6 1.6 0 0 0-.3-1.18 1.47 1.47 0 0 0-1.44-.58v-.17a1.4 1.4 0 0 0-.41-1 1.3 1.3 0 0 0-1.08-.3.64.64 0 0 0 0-.07l-.27-.61a1 1 0 0 0-1.29-.5L8.09 6.36a1 1 0 0 0 .23-1.13L8 4.54a.91.91 0 0 1 0-.63 3 3 0 0 0-.29-2.46zM3 3.94A2.33 2.33 0 0 1 4.19.86l.26-.1a2.24 2.24 0 0 1 .68-.1 2.36 2.36 0 0 1 2 1.13 2.29 2.29 0 0 1 .23 1.91 1.89 1.89 0 0 0-.08.53L4.61 5.42a1.72 1.72 0 0 0-.45-.31A2.32 2.32 0 0 1 3 3.94zm2.27 2.64L5 6l2.44-1.11.27.61a.33.33 0 0 1-.17.44l-1.83.81a.31.31 0 0 1-.25 0 .34.34 0 0 1-.19-.17zM6.9 7l.6-.27 2.84 6.4-1.22.54-2.84-6.44zm9.59 11a.85.85 0 0 1 .51.36 1.08 1.08 0 0 1 .2.67c0 .17-.16.38-.26.38H8.55a.26.26 0 0 1-.25-.27.26.26 0 0 1 .22-.25l7-.81.3-.05a1.9 1.9 0 0 1 .63 0zM15 16.51a.87.87 0 0 1 .11.88l-6.58.75a.58.58 0 0 1-.15-.35.39.39 0 0 1 .34-.42l.51-.1 4.37-.93a2.61 2.61 0 0 0 .27-.06h.09c.53-.14.85-.06 1.08.26zm-1.76-1.69a.73.73 0 0 1 .21.52.69.69 0 0 1-.13.37l-4.26.89a.44.44 0 0 1-.45-.16.36.36 0 0 1 0-.42c.06-.15.17-.19.47-.28l3.08-.94c.5-.16.84-.24 1.11 0zm-1.57-1.22l.25.57-3.08.93-.14.05a1.11 1.11 0 0 1-.07-.15.42.42 0 0 1 0-.29c.05-.13.19-.2.42-.3h.05l1.81-.8.33-.15a.34.34 0 0 1 .44.17z"/></svg>