<svg id="Livello_1" data-name="Livello 1" xmlns="http://www.w3.org/2000/svg" viewBox="0 0 35 35"><defs><style>.cls-1{opacity:.4}.cls-2{fill:#0b1a28}</style></defs><g class="cls-1" id="Spunta"><path class="cls-2" d="M21.47 15.43l-.51.36-.52.36c1.18 1.69 2.29 3.29 2.29 5.43a5.59 5.59 0 1 1-11.17 0c0-2.17 1.15-3.84 2.3-5.49.34-.49.69-1 1-1.52a17.31 17.31 0 0 0 2.26-5.48 17.09 17.09 0 0 0 2.26 5.48c.32.53.68 1 1 1.55l.54-.33.5-.38c-.34-.49-.69-1-1-1.5a15.29 15.29 0 0 1-2.32-6.45 1 1 0 0 0-1-.89 1 1 0 0 0-1 .89 15.56 15.56 0 0 1-2.32 6.45c-.31.5-.65 1-1 1.5-1.17 1.69-2.5 3.61-2.5 6.17a6.85 6.85 0 1 0 13.69 0c.03-2.58-1.32-4.46-2.5-6.15z"/><path class="cls-2" d="M16.28 21a2.7 2.7 0 0 1-.28-.31 2.21 2.21 0 0 1-.48-.92 4.81 4.81 0 0 1-.09-1.77l.57-3.79-1.71 3.36c-.08.15-1.81 3.6-.82 5.86a2.29 2.29 0 0 0 2 1.43 1.63 1.63 0 0 0 .68-.14 2.12 2.12 0 0 0 .85-2.84 3.09 3.09 0 0 0-.72-.88zm-.68 2.62c-.34.15-.8-.15-1-.65a3.91 3.91 0 0 1-.07-2.29 3.91 3.91 0 0 0 .51.81c.11.13.24.26.36.39a1.93 1.93 0 0 1 .44.55c.16.44.09.99-.24 1.14z"/></g><g class="cls-1"><path class="cls-2" d="M18.38 34a16.53 16.53 0 1 1 9.4-30.1.9.9 0 0 1-1 1.48 14.73 14.73 0 1 0 4 20.07.89.89 0 0 1 1.22-.27.9.9 0 0 1 .28 1.24A16.5 16.5 0 0 1 18.38 34z"/><path class="cls-2" d="M23.51 6.89l7.83 1.87-2.29-7.72-5.54 5.85z"/></g></svg>