<svg data-name="Livello 1" xmlns="http://www.w3.org/2000/svg" viewBox="0 0 20 20"><g data-name="Raggruppa 764"><g data-name="Raggruppa 763"><path data-name="Tracciato 205" d="M19.58 18.13h-7v-6.7h.69a1.11 1.11 0 011.11 1.12v1.17a2.23 2.23 0 004.45 0V7.09a2.77 2.77 0 00-.72-1.85L14.8 1.51l-.63.55L16.71 5A1.68 1.68 0 1018 8v5.74a1.38 1.38 0 01-2.76 0v-1.18a2 2 0 00-2-2h-.69V2.78A1.73 1.73 0 0010.83 1H3a1.74 1.74 0 00-1.68 1.78v15.35h-.9a.42.42 0 000 .84h19.16a.42.42 0 100-.84zM17 7.46a.85.85 0 01-.85-.85.85.85 0 11.85.85zm-5.28 10.67H2.16V2.78A.9.9 0 013 1.87h7.79a.92.92 0 01.89.91v15.35z" fill="#0b1a28" opacity=".4"/></g></g></svg>