<svg id="Livello_1" data-name="Livello 1" xmlns="http://www.w3.org/2000/svg" viewBox="0 0 20 20"><defs><style>.cls-1{opacity:.4}.cls-2{fill:#0b1a28}</style></defs><g id="Raggruppa_764" data-name="Raggruppa 764" class="cls-1"><g id="Raggruppa_763" data-name="Raggruppa 763"><path id="Tracciato_205" data-name="Tracciato 205" class="cls-2" d="M19.58 18.13h-7v-6.7h.69a1.11 1.11 0 0 1 1.11 1.12v1.17a2.23 2.23 0 0 0 4.45 0V7.09a2.77 2.77 0 0 0-.72-1.85L14.8 1.51l-.63.55L16.71 5A1.68 1.68 0 1 0 18 8v5.74a1.38 1.38 0 0 1-2.76 0v-1.18a2 2 0 0 0-2-2h-.69V2.78A1.73 1.73 0 0 0 10.83 1H3a1.74 1.74 0 0 0-1.68 1.78v15.35h-.9a.42.42 0 0 0 0 .84h19.16a.42.42 0 1 0 0-.84zM17 7.46a.85.85 0 0 1-.85-.85.85.85 0 1 1 .85.85zm-5.28 10.67H2.16V2.78A.9.9 0 0 1 3 1.87h7.79a.92.92 0 0 1 .89.91v15.35z"/></g></g></svg>