<svg id="Livello_1" data-name="Livello 1" xmlns="http://www.w3.org/2000/svg" viewBox="0 0 20 20"><defs><style>.cls-2{fill:#0b1a28}</style></defs><g id="Tracciato_206" data-name="Tracciato 206" style="isolation:isolate" opacity=".4"><path class="cls-2" d="M18.57 2.42h-1.65v-.33a1 1 0 10-2 0v.33H5.05v-.33a1 1 0 10-2 0v.33H1.43A1.32 1.32 0 00.11 3.74v13.84a1.32 1.32 0 001.32 1.32h14.18a.33.33 0 00.33-.33.33.33 0 00-.33-.33H1.43a.65.65 0 01-.66-.66V6.37h18.46v11.21a.65.65 0 01-.66.66h-1.32a.33.33 0 000 .66h1.32a1.32 1.32 0 001.32-1.32V3.74a1.32 1.32 0 00-1.32-1.32zm-3-.33a.33.33 0 11.65 0v1.65a.33.33 0 01-.65 0zm-11.87 0a.33.33 0 11.65 0v1.65a.33.33 0 01-.65 0zm-3 3.62v-2a.65.65 0 01.66-.66h1.72v.66a1 1 0 002 0v-.63H15v.66a1 1 0 002 0v-.66h1.65a.65.65 0 01.66.66v2z"/><path class="cls-2" d="M15.61 19H1.43A1.43 1.43 0 010 17.59V3.74a1.43 1.43 0 011.43-1.43H3v-.22a1.1 1.1 0 112.19 0v.22h9.68v-.22a1.1 1.1 0 112.19 0v.22h1.54A1.43 1.43 0 0120 3.74v13.84A1.43 1.43 0 0118.57 19h-1.32a.48.48 0 01-.31-.13.43.43 0 01-.12-.31.44.44 0 01.43-.44h1.32a.55.55 0 00.56-.55V6.48H.87v11.11a.56.56 0 00.56.55h14.18a.43.43 0 01.43.43.44.44 0 01-.43.43zM1.43 2.52A1.22 1.22 0 00.22 3.74v13.85a1.22 1.22 0 001.21 1.21h14.18a.22.22 0 00.22-.23.22.22 0 00-.22-.22H1.43a.76.76 0 01-.77-.76V6.27h18.68v11.31a.76.76 0 01-.77.77h-1.32a.22.22 0 00-.22.22.2.2 0 00.07.16.2.2 0 00.15.06h1.32a1.21 1.21 0 001.21-1.21V3.74a1.22 1.22 0 00-1.21-1.22h-1.75v-.43a.89.89 0 10-1.77 0v.43H5v-.43a.89.89 0 10-1.77 0v.43zm17.91 3.3H.66V3.74A.76.76 0 011.43 3h1.75v.77A.89.89 0 005 3.74V3h10.1v.77a.89.89 0 001.77 0V3h1.75a.76.76 0 01.77.76zM.87 5.61h18.26V3.74a.56.56 0 00-.56-.56H17v.56a1.1 1.1 0 01-2.19 0v-.56H5.16v.56a1.1 1.1 0 01-2.16 0v-.56H1.43a.56.56 0 00-.56.56zm15.06-1.44a.43.43 0 01-.43-.43V2.09a.44.44 0 11.87 0v1.65a.43.43 0 01-.44.43zm0-2.31a.22.22 0 00-.22.23v1.65a.22.22 0 00.22.22.22.22 0 00.23-.22V2.09a.23.23 0 00-.23-.23zM4.07 4.17a.43.43 0 01-.44-.43V2.09a.44.44 0 11.87 0v1.65a.43.43 0 01-.43.43zm0-2.31a.23.23 0 00-.23.23v1.65a.22.22 0 00.23.26.22.22 0 00.22-.22V2.09a.22.22 0 00-.22-.23z"/></g></svg>