<svg data-name="Livello 1" xmlns="http://www.w3.org/2000/svg" viewBox="0 0 35 35"><path opacity=".4" fill="#0b1a28" d="M15.77 17.67l-2.49-2.71-2.76 2.75 5.19 5.19 8.77-8.76-2.01-2.04-6.7 5.57z"/><path d="M17.51 35a2.07 2.07 0 01-1.15-.35c-5-3.13-8.25-6.52-10.3-10.66s-3-9.08-3-15.75a2 2 0 011.76-2 21.94 21.94 0 005.79-1.94A26.84 26.84 0 0016.15.51a2 2 0 012.69 0 26.25 26.25 0 005.53 3.77 22 22 0 005.8 2 2 2 0 011.74 2c0 6.67-.94 11.67-3 15.75s-5.33 7.53-10.32 10.67a1.94 1.94 0 01-1.08.3zm0-33.39a.46.46 0 00-.29.11 28.09 28.09 0 01-5.85 4A23.5 23.5 0 015.11 7.8h-.05a.42.42 0 00-.36.43c0 6.5.86 11.14 2.8 15s5 7.06 9.74 10a.44.44 0 00.49 0c4.76-3 7.86-6.18 9.77-10s2.8-8.62 2.8-15a.42.42 0 00-.36-.43 24 24 0 01-6.3-2.1 28.25 28.25 0 01-5.86-4 .42.42 0 00-.28-.09z" fill="#0b1a28" opacity=".4"/></svg>