<svg id="Livello_1" data-name="Livello 1" xmlns="http://www.w3.org/2000/svg" viewBox="0 0 35 35"><defs><style>.cls-2{fill:#0b1a28}</style></defs><g opacity=".4" id="Spunta"><path class="cls-2" d="M24.63 18.36a3.09 3.09 0 00-3.51-.56L12.35 9l-1.22-4.48a1.7 1.7 0 00-.78-1L4.92.67a1.22 1.22 0 00-1.36.21L.88 3.55a1.22 1.22 0 00-.21 1.38l2.87 5.42a1.7 1.7 0 001 .78L9 12.35l8.78 8.77a3 3 0 00.56 3.52l8.93 8.93a3 3 0 004.3 0l2-2a3 3 0 000-4.29zm8.08 12.37l-2 2a1.78 1.78 0 01-1.29.54 1.81 1.81 0 01-1.28-.53L19.2 23.8a1.82 1.82 0 01-.16-2.37.61.61 0 00-.06-.8l-9.21-9.26a.57.57 0 00-.27-.16L4.83 10a.43.43 0 01-.21-.17L1.74 4.42l2.61-2.67 5.43 2.87a.5.5 0 01.17.21l1.26 4.67a.61.61 0 00.16.28L20.6 19a.6.6 0 00.79.06 1.86 1.86 0 012.38.16l8.94 8.94a1.84 1.84 0 010 2.57z"/><path class="cls-2" d="M18.28 13.24l4.93-4.92a.62.62 0 00.16-.58 5.27 5.27 0 015.1-6.52h.08l-2.31 2.32a.62.62 0 00-.16.58L27 7.57a.59.59 0 00.43.42l3.44.93a.6.6 0 00.59-.16l2.32-2.31a5.28 5.28 0 01-6.53 5.18.61.61 0 00-.57.16l-4.51 4.51h.3a4.36 4.36 0 011.25.2l3.59-3.58A6.5 6.5 0 0034.82 5a.61.61 0 00-1-.29l-2.97 2.94-2.76-.74-.74-2.76 2.94-2.94a.61.61 0 00-.29-1 6.49 6.49 0 00-7.89 7.51l-4.69 4.69zm-2.01 8.97l-4.48 4.47a.62.62 0 00-.16.58 5.24 5.24 0 01-1.39 5 5.14 5.14 0 01-3.8 1.54l2.32-2.31a.64.64 0 00.16-.59L8 27.44a.6.6 0 00-.43-.44l-3.45-.93a.62.62 0 00-.58.16l-2.32 2.33a5.27 5.27 0 016.53-5.19.63.63 0 00.57-.16l4.92-4.92-.86-.87-4.69 4.69A6.49 6.49 0 00.18 30a.61.61 0 001 .29l2.94-2.94 2.76.74.74 2.76-2.91 2.95a.59.59 0 00-.16.59.61.61 0 00.45.43 6.66 6.66 0 001.53.18 6.49 6.49 0 006.36-7.69l3.57-3.56a4.24 4.24 0 01-.19-1.54z"/></g></svg>