<svg width="512" height="512" xmlns="http://www.w3.org/2000/svg"><path fill="none" d="M-1-1h582v402H-1z"/><g fill="#fff"><path d="M202.7 405.5c-54.2 0-105.1-21.1-143.4-59.4-79.1-79.1-79.1-207.7 0-286.8C97.7 21 148.6 0 202.7 0c54.2 0 105.1 21 143.4 59.3 38.3 38.3 59.4 89.2 59.4 143.4s-21.1 105.1-59.4 143.4c-38.3 38.3-89.2 59.4-143.4 59.4zm0-384.4c-48.5 0-94.2 18.9-128.5 53.2-70.8 70.8-70.8 186.1 0 257 34.3 34.3 79.9 53.2 128.5 53.2 48.5 0 94.2-18.9 128.5-53.2 34.3-34.3 53.2-79.9 53.2-128.5 0-48.5-18.9-94.2-53.2-128.5-34.3-34.4-79.9-53.2-128.5-53.2z"/><path d="M501.5 512c-2.7 0-5.4-1-7.5-3.1L331.2 346.1c-4.1-4.1-4.1-10.8 0-14.9s10.8-4.1 14.9 0L509 494c4.1 4.1 4.1 10.8 0 14.9-2.1 2.1-4.8 3.1-7.5 3.1z"/></g></svg>