<svg id="Livello_1" data-name="Livello 1" xmlns="http://www.w3.org/2000/svg" viewBox="0 0 300 400"><defs><style>.cls-1{fill:#d6deed}</style></defs><g id="Raggruppa_674" data-name="Raggruppa 674"><g id="Raggruppa_657" data-name="Raggruppa 657"><path id="Tracciato_25" data-name="Tracciato 25" class="cls-1" d="M150.12 96.26c-41.21 0-76.91 14.81-106.11 44S0 205.18 0 246.39c0 41 14.8 76.66 44 105.87s64.9 44 106.11 44c41 0 76.67-14.81 105.87-44s44-64.83 44-105.87c0-41.22-14.8-76.92-44-106.11s-64.82-44.02-105.86-44.02zm69 219.43c-19 19-42.19 28.58-69 28.58-27 0-50.3-9.61-69.25-28.56-19-19.25-28.62-42.56-28.62-69.32 0-27 9.62-50.3 28.6-69.28s42.28-28.59 69.27-28.59c26.84 0 50 9.62 69 28.59s28.6 42.29 28.6 69.28c0 26.74-9.63 50.06-28.61 69.3z"/></g><g id="Raggruppa_658" data-name="Raggruppa 658"><path id="Tracciato_26" data-name="Tracciato 26" class="cls-1" d="M263.29 86.21c-31-25.85-69.1-39-113.13-39-44.24 0-82.41 13.11-113.45 39L8.86 52.79c39.08-32.55 86.6-49.06 141.3-49.06 54.48 0 101.91 16.51 141 49.06z"/></g><circle id="Ellisse_3" data-name="Ellisse 3" class="cls-1" cx="149.99" cy="246.26" r="43.31"/></g></svg>