<svg id="Livello_1" data-name="Livello 1" xmlns="http://www.w3.org/2000/svg" viewBox="0 0 20 20"><defs><style>.cls-1{fill:#fff}</style></defs><g id="Spunta"><g id="Raggruppa_747" data-name="Raggruppa 747"><path id="Tracciato_194" data-name="Tracciato 194" class="cls-1" d="M19.57 2.67H.43a.42.42 0 0 0-.43.42v13.82a.42.42 0 0 0 .43.42h19.14a.42.42 0 0 0 .43-.42V3.09a.42.42 0 0 0-.43-.42zM14.06 10l-6.68 3.65a.33.33 0 0 1-.45-.13.32.32 0 0 1 0-.16V6.11a.33.33 0 0 1 .33-.33.27.27 0 0 1 .16 0l6.69 3.63a.34.34 0 0 1 .13.46.35.35 0 0 1-.14.13z"/></g></g></svg>