<svg id="Livello_1" data-name="Livello 1" xmlns="http://www.w3.org/2000/svg" viewBox="0 0 35 35"><defs><style>.cls-1{opacity:0.4;isolation:isolate;}.cls-2{fill:#0b1a28;}</style></defs><g class="cls-1"><path class="cls-2" d="M33,29.52H28.38A1.55,1.55,0,0,1,26.83,28v-.74H8.13V28a1.55,1.55,0,0,1-1.55,1.55H2A1.56,1.56,0,0,1,.44,28V18.68A7.76,7.76,0,0,1,1.73,14.1l-.87-.55a2,2,0,0,1-.57-2.67A2,2,0,0,1,3,10.27l.9.55.08-.16C5,8.6,6.59,5.48,9.16,5.48H25.8c2.57,0,4.16,3.11,5.22,5.17l.08.17.84-.55a2,2,0,0,1,2.69.55A1.39,1.39,0,0,1,35,11.94a2.21,2.21,0,0,1-.94,1.61l-.86.54a7.35,7.35,0,0,1,1.27,4.59c.06,3.09.06,6.19.06,9.29A1.56,1.56,0,0,1,33,29.52ZM7.1,26.19H27.87V28a.5.5,0,0,0,.51.51H33a.5.5,0,0,0,.51-.51c0-3.1,0-6.19-.06-9.28A5.88,5.88,0,0,0,32,14.34l-.46-.46,1.93-1.21a1.19,1.19,0,0,0,.46-.82c0-.06,0-.23-.07-.3l-.09-.1a1,1,0,0,0-1.32-.3l-1.77,1.16-.62-1.18c-.94-1.84-2.35-4.61-4.29-4.61H9.16c-1.94,0-3.35,2.78-4.29,4.61L4.26,12.3,2.41,11.14c-.4-.25-.67-.25-1.31.39a.92.92,0,0,0,.31,1.14l1.9,1.19-.42.46c-.33.37-1.35,1.49-1.41,4.37V28a.51.51,0,0,0,.51.51H6.58A.51.51,0,0,0,7.1,28ZM21,24.93H13.92a1,1,0,0,1-1-1V22.23a1,1,0,0,1,1-1H21a1,1,0,0,1,1,1V24A1,1,0,0,1,21,24.93Zm0-2.7-7.11.06V24L21,23.89h0Zm3,.88L24,22.6a3,3,0,0,1,0-1.12l.05-.13a3.48,3.48,0,0,1,1.37-1.42c1.38-.32,2.65-.54,3.88-.75.82-.14,1.63-.28,2.45-.44l.34-.07.19.29a1.86,1.86,0,0,1,.14,1.33l-.06.18A3.28,3.28,0,0,1,30.56,22c-1.85.34-3.94.7-6,1ZM25,21.79s0,.08,0,.13c1.87-.28,3.73-.6,5.34-.89a2.25,2.25,0,0,0,1.08-1c0-.08,0-.14,0-.2l-1.94.34c-1.22.21-2.48.43-3.71.7A2.64,2.64,0,0,0,25,21.79ZM10.91,23.1l-.5-.07c-2.06-.29-4.12-.65-5.93-1a3.34,3.34,0,0,1-1.85-1.59l-.06-.18a2.7,2.7,0,0,1,0-1.2l.14-.43.45.08,2.27.4c1.36.23,2.65.46,3.94.75a3.14,3.14,0,0,1,1.49,1.46A2,2,0,0,1,11,22.61Zm-7.32-3a2.25,2.25,0,0,0,1.16,1c1.56.26,3.39.59,5.24.86a.22.22,0,0,0,0-.08,2,2,0,0,0-.89-1c-1.17-.26-2.45-.47-3.79-.7l-1.71-.3A1.37,1.37,0,0,0,3.59,20.06Zm13.89-6.8A69.08,69.08,0,0,1,6,12.31l-.68-.12.3-.62c.57-1.21,1.21-2.48,1.84-3.69l.15-.28H27.32l.14.28c.32.61.62,1.23.93,1.85S29,11,29.3,11.55l.33.64-.7.12A69.29,69.29,0,0,1,17.48,13.26ZM6.89,11.39a68.56,68.56,0,0,0,21.16,0l-.6-1.21c-.25-.52-.5-1-.76-1.55H8.27C7.8,9.55,7.33,10.48,6.89,11.39Z"/></g></svg>